<svg width="16px" height="16px"  xmlns="http://www.w3.org/2000/svg"><path d="M15,12.1013184 L15,14 L12,14 L12,12.1013184 L4,12.1013184 L4,14 L1,14 L1,12.1013184 C0.44771525,12.1013184 0,11.6536031 0,11.1013184 L0,7.10131836 C0,6.54903361 0.44771525,6.10131836 1,6.10131836 L1.2259774,6.10131836 L2.32839514,2.42546585 C2.58213207,1.57941673 3.36081733,1 4.24409619,1 L11.8809064,1 C12.7720635,1 13.5557079,1.58960967 13.8026117,2.44588038 L14.8566494,6.10131836 L15,6.10131836 C15.5522847,6.10131836 16,6.54903361 16,7.10131836 L16,11.1013184 C16,11.6536031 15.5522847,12.1013184 15,12.1013184 Z M3.31398586,6.10131836 L12.7751649,6.10131836 L11.8809064,3 L4.24409619,3 L3.31398586,6.10131836 Z M2,8.10131836 L2,10.1013184 L14,10.1013184 L14,8.10131836 L2,8.10131836 Z" transform="translate(0 -1)" fill="#7C878E" fill-rule="nonzero"/></svg>