<svg xmlns="http://www.w3.org/2000/svg" fill="none" viewBox="0 0 16 16" class="design-iconfont">
  <path d="M14.2 6H14.1L13.9 5.4H15.3V4.3H13.5L13.2 3.3C13.1 2.5 12.4 2 11.6 2H4.3C3.5 2 2.8 2.5 2.6 3.3L2.3 4.3H0.6V5.4H2L1.8 6H1.7C0.8 6 0 6.7 0 7.7V12.2H1.1V13.9H4V12.2H12V13.9H14.8V12.2H15.9V7.7C15.9 6.7 15.2 6 14.2 6ZM3.7 3.6C3.8 3.3 4 3.1 4.3 3.1H11.6C11.9 3.1 12.1 3.3 12.2 3.6L12.9 6H3L3.7 3.6ZM1.7 7.1H3.2L3 7.7H1.1C1.1 7.4 1.4 7.1 1.7 7.1ZM14.8 11.1H1.1V8.8H3.8L4.4 7.1H11L11.6 8.8H14.9V11.1H14.8ZM12.4 7.7L12.2 7.1H14.3C14.6 7.1 14.9 7.4 14.9 7.7H12.4ZM5.7 10.5H10.2V9.4H5.7V10.5Z" fill="#0052D9"/>
</svg>
