<svg xmlns="http://www.w3.org/2000/svg" width="14" height="14" viewBox="0 0 14 14" fill="none">
  <g clip-path="url(#clip0_941_35627)">
    <path fill-rule="evenodd" clip-rule="evenodd" d="M12.25 7C12.25 5.96165 11.9421 4.94661 11.3652 4.08325C10.7883 3.21989 9.96834 2.54702 9.00902 2.14966C8.04971 1.7523 6.9941 1.64832 5.9757 1.85089C4.9573 2.05346 4.02194 2.55349 3.28771 3.28772C2.55349 4.02195 2.05339 4.95743 1.85082 5.97583C1.64825 6.99423 1.75229 8.04978 2.14965 9.00909C2.54701 9.96841 3.21988 10.7884 4.08324 11.3652C4.9466 11.9421 5.96164 12.25 6.99999 12.25C8.39238 12.25 9.72771 11.6969 10.7123 10.7123C11.6968 9.72778 12.25 8.39239 12.25 7ZM14 7C14 8.38447 13.5895 9.73789 12.8203 10.889C12.0511 12.0402 10.9578 12.9373 9.6787 13.4672C8.39962 13.997 6.99226 14.1356 5.63439 13.8655C4.27652 13.5954 3.02925 12.9287 2.05028 11.9498C1.07132 10.9708 0.404609 9.72353 0.134513 8.36566C-0.135584 7.00779 0.00301462 5.60031 0.532828 4.32123C1.06264 3.04215 1.95981 1.94892 3.11095 1.17975C4.2621 0.410579 5.61552 0 6.99999 0C8.85651 0 10.6369 0.737538 11.9497 2.05029C13.2625 3.36305 14 5.14348 14 7V7Z" fill="#0052D9"></path>
    <path d="M9.13013 10.02V6.35004C9.13013 6.01004 9.13013 5.59002 9.13013 5.08002C9.08267 5.34034 9.01916 5.59752 8.94006 5.85004L7.45007 10.02H6.45007L4.94006 5.89001C4.86119 5.6239 4.79781 5.35345 4.75012 5.08002V5.08002C4.75012 5.58002 4.80005 6.08004 4.80005 6.60004V10.02H3.64014V4.02002H5.51013L6.82007 7.68005C6.92124 7.95544 6.99503 8.24014 7.04016 8.53003V8.53003C7.10667 8.23874 7.19015 7.9516 7.29016 7.67004L8.6001 4.02002H10.3601V10.02H9.13013Z" fill="#0052D9"></path>
  </g>
  <defs>
    <clipPath id="clip0_941_35627">
      <rect width="14" height="14" fill="white"></rect>
    </clipPath>
  </defs>
</svg>