<svg width="16" height="16" viewBox="0 0 16 16" fill="none" xmlns="http://www.w3.org/2000/svg">
<path d="M16 12H14V4V3H13H3V1H2V3H0V4H2V12V13H3H13V15H14V13H16V12ZM3 12V4H13V12H3Z" fill="#0052D9"/>
<path d="M5.5 7.29995C5.94182 7.29995 6.3 6.94178 6.3 6.49995C6.3 6.05812 5.94182 5.69995 5.5 5.69995C5.05817 5.69995 4.7 6.05812 4.7 6.49995C4.7 6.94178 5.05817 7.29995 5.5 7.29995Z" fill="#0052D9"/>
<path d="M11.9 10.5C11.5 9.49995 11.1 8.49995 10.7 7.49995C10.7 7.39995 10.6 7.19995 10.4 7.19995C10.3 7.19995 10.1 7.39995 10.1 7.49995C9.7 7.99995 9.3 8.59995 8.8 9.29995C8.7 9.49995 8.5 9.49995 8.2 9.39995C7.5 9.09995 6.7 8.69995 6 8.29995C5.7 8.29995 5.6 8.29995 5.4 8.49995C5 9.09995 4.6 9.79995 4.1 10.5C4 10.6 4 10.8 4 10.9C4.1 11 4.3 11 4.4 11H8H11.5C12 11 12.1 10.9 11.9 10.5Z" fill="#0052D9"/>
</svg>
