<svg width="64" height="20" viewBox="0 0 64 20" fill="none" xmlns="http://www.w3.org/2000/svg">
<rect width="64" height="20" rx="3" fill="#FFF6E6"/>
<path d="M8.5 10.5H15.5V9.5H8.5V10.5Z" fill="#FF9D00"/>
<path d="M19 10C19 13.866 15.866 17 12 17C8.13401 17 5 13.866 5 10C5 6.13401 8.13401 3 12 3C15.866 3 19 6.13401 19 10ZM18 10C18 6.68629 15.3137 4 12 4C8.68629 4 6 6.68629 6 10C6 13.3137 8.68629 16 12 16C15.3137 16 18 13.3137 18 10Z" fill="#FF9D00"/>
<path d="M29.676 4.268H30.324V5.984H34.536V6.632H30.324V8.948H35.172V9.596H31.02C31.82 11.164 33.256 12.576 35.328 13.832L34.86 14.42C32.756 12.988 31.296 11.38 30.48 9.596H30.324V15.14H29.676V9.596H29.52C28.648 11.572 27.148 13.196 25.02 14.468L24.648 13.856C26.672 12.744 28.12 11.324 28.992 9.596H24.828V8.948H29.676V6.632H25.548V5.984H29.676V4.268ZM36.756 6.644H38.328V4.232H38.964V6.644H40.272V7.28H38.964V7.964C39.468 8.54 39.972 9.188 40.476 9.908L40.116 10.46C39.66 9.668 39.276 9.048 38.964 8.6V15.116H38.328V8.816C37.92 10.176 37.368 11.396 36.672 12.476L36.384 11.768C37.304 10.456 37.948 8.96 38.316 7.28H36.756V6.644ZM42.108 7.76H45.696V8.384H42.108V7.76ZM40.476 14.156H44.664C45.184 12.876 45.644 11.268 46.044 9.332L46.656 9.488C46.296 11.24 45.844 12.796 45.3 14.156H47.292V14.792H40.476V14.156ZM41.664 9.656C42.016 10.688 42.324 11.848 42.588 13.136L42.012 13.292C41.788 12.18 41.484 11.032 41.1 9.848L41.664 9.656ZM43.548 9.2C43.876 10.224 44.16 11.344 44.4 12.56L43.812 12.716C43.58 11.484 43.308 10.376 42.996 9.392L43.548 9.2ZM44.172 4.256C44.812 5.784 45.936 7.132 47.544 8.3L47.172 8.852C45.684 7.78 44.58 6.46 43.86 4.892C43.004 6.612 41.908 7.944 40.572 8.888L40.212 8.336C41.652 7.28 42.768 5.92 43.56 4.256H44.172ZM49.2 4.508C49.896 5.06 50.48 5.608 50.952 6.152L50.52 6.584C50.088 6.056 49.5 5.504 48.756 4.928L49.2 4.508ZM49.008 7.448C49.704 8.056 50.272 8.644 50.712 9.212L50.28 9.644C49.848 9.076 49.276 8.484 48.564 7.868L49.008 7.448ZM50.808 10.844C50.352 12.284 49.828 13.68 49.236 15.032L48.648 14.78C49.248 13.476 49.784 12.092 50.256 10.628L50.808 10.844ZM55.404 4.832V12.08H54.804V5.396H52.152V12.152H51.564V4.832H55.404ZM54.108 12.692C54.868 13.372 55.504 14.056 56.016 14.744L55.572 15.176C55.124 14.528 54.504 13.832 53.712 13.088L54.108 12.692ZM53.196 6.32H53.772V10.16C53.748 11.52 53.536 12.6 53.136 13.4C52.744 14.144 52.096 14.732 51.192 15.164L50.844 14.624C51.716 14.208 52.332 13.656 52.692 12.968C53.02 12.248 53.188 11.312 53.196 10.16V6.32ZM56.76 15.08L56.628 14.48C57.204 14.512 57.62 14.528 57.876 14.528C58.172 14.528 58.32 14.356 58.32 14.012V4.292H58.932V14.168C58.932 14.776 58.652 15.08 58.092 15.08H56.76ZM56.52 5.276H57.108V12.812H56.52V5.276Z" fill="#FF9D00"/>
</svg>
