<svg width="76" height="20" viewBox="0 0 76 20" fill="none" xmlns="http://www.w3.org/2000/svg">
<rect width="76" height="20" rx="3" fill="#E7F6F0"/>
<path d="M24.756 6.644H26.328V4.232H26.964V6.644H28.272V7.28H26.964V7.964C27.468 8.54 27.972 9.188 28.476 9.908L28.116 10.46C27.66 9.668 27.276 9.048 26.964 8.6V15.116H26.328V8.816C25.92 10.176 25.368 11.396 24.672 12.476L24.384 11.768C25.304 10.456 25.948 8.96 26.316 7.28H24.756V6.644ZM30.108 7.76H33.696V8.384H30.108V7.76ZM28.476 14.156H32.664C33.184 12.876 33.644 11.268 34.044 9.332L34.656 9.488C34.296 11.24 33.844 12.796 33.3 14.156H35.292V14.792H28.476V14.156ZM29.664 9.656C30.016 10.688 30.324 11.848 30.588 13.136L30.012 13.292C29.788 12.18 29.484 11.032 29.1 9.848L29.664 9.656ZM31.548 9.2C31.876 10.224 32.16 11.344 32.4 12.56L31.812 12.716C31.58 11.484 31.308 10.376 30.996 9.392L31.548 9.2ZM32.172 4.256C32.812 5.784 33.936 7.132 35.544 8.3L35.172 8.852C33.684 7.78 32.58 6.46 31.86 4.892C31.004 6.612 29.908 7.944 28.572 8.888L28.212 8.336C29.652 7.28 30.768 5.92 31.56 4.256H32.172ZM37.2 4.508C37.896 5.06 38.48 5.608 38.952 6.152L38.52 6.584C38.088 6.056 37.5 5.504 36.756 4.928L37.2 4.508ZM37.008 7.448C37.704 8.056 38.272 8.644 38.712 9.212L38.28 9.644C37.848 9.076 37.276 8.484 36.564 7.868L37.008 7.448ZM38.808 10.844C38.352 12.284 37.828 13.68 37.236 15.032L36.648 14.78C37.248 13.476 37.784 12.092 38.256 10.628L38.808 10.844ZM43.404 4.832V12.08H42.804V5.396H40.152V12.152H39.564V4.832H43.404ZM42.108 12.692C42.868 13.372 43.504 14.056 44.016 14.744L43.572 15.176C43.124 14.528 42.504 13.832 41.712 13.088L42.108 12.692ZM41.196 6.32H41.772V10.16C41.748 11.52 41.536 12.6 41.136 13.4C40.744 14.144 40.096 14.732 39.192 15.164L38.844 14.624C39.716 14.208 40.332 13.656 40.692 12.968C41.02 12.248 41.188 11.312 41.196 10.16V6.32ZM44.76 15.08L44.628 14.48C45.204 14.512 45.62 14.528 45.876 14.528C46.172 14.528 46.32 14.356 46.32 14.012V4.292H46.932V14.168C46.932 14.776 46.652 15.08 46.092 15.08H44.76ZM44.52 5.276H45.108V12.812H44.52V5.276ZM59.016 5.588V8.168H58.368V6.212H49.608V8.168H48.96V5.588H53.688C53.52 5.108 53.352 4.696 53.184 4.352L53.904 4.232C54.096 4.68 54.256 5.132 54.384 5.588H59.016ZM50.64 7.808H57.312V8.432H50.64V7.808ZM48.816 10.064H59.196V10.7H55.716V13.808C55.716 14.168 55.9 14.348 56.268 14.348H57.936C58.192 14.348 58.376 14.272 58.488 14.12C58.624 13.92 58.716 13.344 58.764 12.392L59.376 12.584C59.304 13.704 59.16 14.396 58.944 14.66C58.76 14.868 58.468 14.972 58.068 14.972H56.076C55.404 14.972 55.068 14.628 55.068 13.94V10.7H52.896V10.832C52.872 12.008 52.552 12.952 51.936 13.664C51.336 14.32 50.356 14.84 48.996 15.224L48.624 14.648C49.968 14.296 50.912 13.824 51.456 13.232C51.96 12.608 52.224 11.808 52.248 10.832V10.7H48.816V10.064ZM68.832 4.232C69.432 4.688 69.936 5.144 70.344 5.6L69.912 6.02C69.536 5.588 69.036 5.124 68.412 4.628L68.832 4.232ZM70.452 8.108C69.964 9.724 69.328 11.084 68.544 12.188C68.728 12.628 68.94 13.024 69.18 13.376C69.612 13.976 69.968 14.276 70.248 14.276C70.512 14.268 70.74 13.624 70.932 12.344L71.52 12.656C71.256 14.216 70.872 14.996 70.368 14.996C69.872 14.996 69.34 14.636 68.772 13.916C68.524 13.604 68.3 13.22 68.1 12.764C67.228 13.812 66.208 14.596 65.04 15.116L64.668 14.564C65.908 14.012 66.956 13.188 67.812 12.092C67.628 11.62 67.472 11.132 67.344 10.628C67.096 9.596 66.928 8.304 66.84 6.752H62.496V8.936H65.436C65.42 10.848 65.348 12.104 65.22 12.704C65.084 13.24 64.736 13.52 64.176 13.544C63.88 13.544 63.528 13.532 63.12 13.508L62.916 12.908C63.54 12.94 63.936 12.956 64.104 12.956C64.408 12.932 64.596 12.724 64.668 12.332C64.748 11.796 64.788 10.872 64.788 9.56H62.496V10.112C62.464 12.216 62.008 13.904 61.128 15.176L60.636 14.732C61.42 13.628 61.828 12.088 61.86 10.112V6.14H66.816C66.792 5.516 66.78 4.868 66.78 4.196H67.428C67.428 4.692 67.444 5.34 67.476 6.14H71.28V6.752H67.5C67.588 8.328 67.748 9.568 67.98 10.472C68.068 10.808 68.164 11.136 68.268 11.456C68.932 10.456 69.464 9.256 69.864 7.856L70.452 8.108Z" fill="#0E9D61"/>
<path d="M8.5 10.2065L11 12.707L15.5 8.2075L14.7925 7.5L11 11.293L9.2065 9.5L8.5 10.2065Z" fill="#0E9D61"/>
<path d="M8.11101 4.17971C9.26216 3.41054 10.6155 3 12 3C13.8565 3 15.637 3.7375 16.9497 5.05025C18.2625 6.36301 19 8.14348 19 10C19 11.3845 18.5895 12.7378 17.8203 13.889C17.0511 15.0401 15.9579 15.9373 14.6788 16.4672C13.3997 16.997 11.9922 17.1356 10.6344 16.8655C9.2765 16.5954 8.02922 15.9287 7.05026 14.9497C6.07129 13.9708 5.4046 12.7235 5.13451 11.3656C4.86441 10.0078 5.00303 8.6003 5.53285 7.32122C6.06266 6.04213 6.95987 4.94888 8.11101 4.17971ZM8.66658 14.9888C9.65328 15.6481 10.8133 16 12 16C13.5913 16 15.1174 15.3679 16.2426 14.2426C17.3679 13.1174 18 11.5913 18 10C18 8.81331 17.6481 7.65327 16.9888 6.66658C16.3295 5.67988 15.3925 4.91085 14.2961 4.45672C13.1997 4.0026 11.9933 3.88378 10.8295 4.11529C9.66558 4.3468 8.59648 4.91824 7.75736 5.75736C6.91825 6.59647 6.3468 7.66557 6.11529 8.82946C5.88378 9.99334 6.0026 11.1997 6.45673 12.2961C6.91085 13.3925 7.67989 14.3295 8.66658 14.9888Z" fill="#0E9D61"/>
</svg>
