<svg width="64" height="20" viewBox="0 0 64 20" fill="none" xmlns="http://www.w3.org/2000/svg">
<rect width="64" height="20" rx="3" fill="#E6EEFC"/>
<path d="M24.756 6.644H26.328V4.232H26.964V6.644H28.272V7.28H26.964V7.964C27.468 8.54 27.972 9.188 28.476 9.908L28.116 10.46C27.66 9.668 27.276 9.048 26.964 8.6V15.116H26.328V8.816C25.92 10.176 25.368 11.396 24.672 12.476L24.384 11.768C25.304 10.456 25.948 8.96 26.316 7.28H24.756V6.644ZM30.108 7.76H33.696V8.384H30.108V7.76ZM28.476 14.156H32.664C33.184 12.876 33.644 11.268 34.044 9.332L34.656 9.488C34.296 11.24 33.844 12.796 33.3 14.156H35.292V14.792H28.476V14.156ZM29.664 9.656C30.016 10.688 30.324 11.848 30.588 13.136L30.012 13.292C29.788 12.18 29.484 11.032 29.1 9.848L29.664 9.656ZM31.548 9.2C31.876 10.224 32.16 11.344 32.4 12.56L31.812 12.716C31.58 11.484 31.308 10.376 30.996 9.392L31.548 9.2ZM32.172 4.256C32.812 5.784 33.936 7.132 35.544 8.3L35.172 8.852C33.684 7.78 32.58 6.46 31.86 4.892C31.004 6.612 29.908 7.944 28.572 8.888L28.212 8.336C29.652 7.28 30.768 5.92 31.56 4.256H32.172ZM37.2 4.508C37.896 5.06 38.48 5.608 38.952 6.152L38.52 6.584C38.088 6.056 37.5 5.504 36.756 4.928L37.2 4.508ZM37.008 7.448C37.704 8.056 38.272 8.644 38.712 9.212L38.28 9.644C37.848 9.076 37.276 8.484 36.564 7.868L37.008 7.448ZM38.808 10.844C38.352 12.284 37.828 13.68 37.236 15.032L36.648 14.78C37.248 13.476 37.784 12.092 38.256 10.628L38.808 10.844ZM43.404 4.832V12.08H42.804V5.396H40.152V12.152H39.564V4.832H43.404ZM42.108 12.692C42.868 13.372 43.504 14.056 44.016 14.744L43.572 15.176C43.124 14.528 42.504 13.832 41.712 13.088L42.108 12.692ZM41.196 6.32H41.772V10.16C41.748 11.52 41.536 12.6 41.136 13.4C40.744 14.144 40.096 14.732 39.192 15.164L38.844 14.624C39.716 14.208 40.332 13.656 40.692 12.968C41.02 12.248 41.188 11.312 41.196 10.16V6.32ZM44.76 15.08L44.628 14.48C45.204 14.512 45.62 14.528 45.876 14.528C46.172 14.528 46.32 14.356 46.32 14.012V4.292H46.932V14.168C46.932 14.776 46.652 15.08 46.092 15.08H44.76ZM44.52 5.276H45.108V12.812H44.52V5.276ZM53.664 4.172H54.336V6.392H58.68V11.912H58.02V11.108H54.336V15.26H53.664V11.108H49.992V11.912H49.332V6.392H53.664V4.172ZM49.992 10.472H53.664V7.04H49.992V10.472ZM54.336 10.472H58.02V7.04H54.336V10.472Z" fill="#0052D9"/>
<path d="M11.5 6V10.3889L14.0002 13L14.7074 12.2929L12.5 9.97471V6H11.5Z" fill="#0052D9"/>
<path d="M19 10C19 13.866 15.866 17 12 17C8.13401 17 5 13.866 5 10C5 6.13401 8.13401 3 12 3C15.866 3 19 6.13401 19 10ZM18 10C18 6.68629 15.3137 4 12 4C8.68629 4 6 6.68629 6 10C6 13.3137 8.68629 16 12 16C15.3137 16 18 13.3137 18 10Z" fill="#0052D9"/>
<path d="M11.5 6V10.3889L14.0002 13L14.7074 12.2929L12.5 9.97471V6H11.5Z" fill="#0052D9"/>
<path d="M19 10C19 13.866 15.866 17 12 17C8.13401 17 5 13.866 5 10C5 6.13401 8.13401 3 12 3C15.866 3 19 6.13401 19 10ZM18 10C18 6.68629 15.3137 4 12 4C8.68629 4 6 6.68629 6 10C6 13.3137 8.68629 16 12 16C15.3137 16 18 13.3137 18 10Z" fill="#0052D9"/>
</svg>
