<svg width="100" height="100" viewBox="0 0 100 100" fill="none" xmlns="http://www.w3.org/2000/svg">
<path d="M7.96332 36.677C7.96332 36.5247 7.99914 36.3634 8.10661 36.2111C7.87376 36.0499 7.8469 35.8796 7.73943 35.7184C7.50658 36.3993 7.3006 37.0891 7.10358 37.7789C7.25582 37.8237 7.40807 37.9133 7.56927 38.0387C7.68569 37.5818 7.82003 37.1249 7.96332 36.677Z" fill="#E34D59"/>
<path d="M93.5257 42.9123C94.475 48.8162 94.2153 54.8456 92.7914 60.6151C92.9973 60.5972 93.1764 60.5972 93.3287 60.5883C93.8033 58.6442 94.1437 56.6732 94.3586 54.6575C94.4929 53.3405 94.5735 52.0325 94.6004 50.7245L94.5914 50.7155C94.5914 50.7066 94.6004 50.7066 94.6004 50.6976C94.6004 50.5812 94.6004 50.4736 94.6094 50.3572C94.6094 50.3482 94.6004 50.3393 94.6004 50.3213L94.6094 50.3124C94.6362 47.6695 94.4213 45.0356 93.9735 42.4375C93.9645 42.5002 93.9556 42.5719 93.9287 42.6436C93.7854 42.8496 93.6601 42.8765 93.5257 42.9123Z" fill="#E34D59"/>
<path d="M91.7792 64.0815C91.9493 64.0457 92.1374 64.0726 92.2896 64.1711C92.5046 63.5173 92.7106 62.8635 92.8986 62.2098C92.7374 62.1471 92.5762 62.0934 92.4061 62.0486C92.218 62.7292 92.012 63.4098 91.7792 64.0815Z" fill="#E34D59"/>
<path d="M87.8925 73.1487C87.8746 73.0591 87.8298 72.9158 87.785 72.7545C86.0745 75.6035 84.0237 78.2822 81.6414 80.7369C81.8027 80.7817 81.9549 80.8534 82.0713 81.0057C84.4535 78.5509 86.5312 75.8453 88.2865 72.9068C88.1522 73.0412 88 73.1487 87.8925 73.1487ZM87.7044 73.74C87.4716 73.5698 87.6328 73.3906 87.8388 73.2204C88.0537 73.3906 87.7582 73.5608 87.7044 73.74Z" fill="#E34D59"/>
<path d="M92.4241 36.7307C92.1823 36.8472 92.4779 36.4351 92.1644 36.3365C92.0928 36.3097 92.0122 36.3186 91.9405 36.3455C92.0838 36.7934 92.2271 37.2504 92.3525 37.6983C92.7197 38.0298 93.0152 38.3523 92.9436 38.6838C92.863 38.7823 92.7734 38.8719 92.6928 38.9436C92.9077 39.7588 93.0869 40.5831 93.257 41.4073C93.4988 41.461 93.7406 41.6402 93.866 41.9C93.5973 40.4666 93.266 39.0421 92.863 37.6266C92.7555 37.2593 92.648 36.892 92.5316 36.5336C92.4599 36.5874 92.4152 36.6501 92.4241 36.7307Z" fill="#E34D59"/>
<path d="M75.0411 86.3184C75.1396 86.4348 75.265 86.5602 75.3904 86.6767C76.3039 86.0406 77.1905 85.3777 78.0592 84.6699C78.0681 84.661 78.086 84.652 78.095 84.643C77.9517 84.5982 77.7994 84.4997 77.6382 84.3743C76.7964 85.0641 75.9277 85.7091 75.0411 86.3184Z" fill="#E34D59"/>
<path d="M79.7428 82.5735C79.6354 82.672 79.5189 82.7795 79.4115 82.878C79.4921 82.9675 79.5458 83.066 79.5637 83.1735C79.4294 83.3258 79.2324 83.2899 79.0622 83.1825C78.6771 83.5228 78.2831 83.8541 77.889 84.1765C78.0681 84.2392 78.2562 84.3019 78.4353 84.3646C78.9547 83.9347 79.4562 83.4959 79.9488 83.0481C79.8593 82.9944 79.7607 82.9228 79.6622 82.8153C79.6801 82.7257 79.707 82.6451 79.7428 82.5735Z" fill="#E34D59"/>
<path d="M88.7881 70.9896C88.7881 71.0792 88.7702 71.1688 88.7344 71.2584C88.6627 71.3569 88.6 71.4196 88.5284 71.4555C88.412 71.6705 88.2866 71.8855 88.1612 72.1095C88.2866 72.2618 88.4568 72.4141 88.4747 72.5664V72.5753C88.7702 72.0647 89.0657 71.545 89.3434 71.0165C90.3733 69.0813 91.2599 67.0835 91.9853 65.0409C91.8151 65.005 91.645 64.9602 91.5017 64.8617C90.7673 66.9581 89.8628 69.0097 88.7881 70.9896Z" fill="#E34D59"/>
<path d="M73.9397 87.5008C73.8322 87.5814 73.7874 87.662 73.7695 87.7426C73.9039 87.6531 74.0472 87.5725 74.1815 87.4829C74.1009 87.4829 74.0203 87.4829 73.9397 87.5008Z" fill="#E34D59"/>
<path d="M31.7318 9.8092C31.7318 9.81816 31.7228 9.81816 31.7228 9.82712C31.7318 9.81816 31.7407 9.81816 31.7586 9.8092C31.7497 9.8092 31.7407 9.8092 31.7318 9.8092Z" fill="#E34D59"/>
<path d="M80.5041 81.8657C80.3966 81.9642 80.2891 82.0717 80.1817 82.1702C80.316 82.0807 80.4324 81.9911 80.5041 81.8657Z" fill="#E34D59"/>
<path d="M7.76633 35.6196C7.88275 35.4584 7.92753 35.2883 7.93648 35.1271C7.88275 35.2883 7.82006 35.4495 7.76633 35.6196Z" fill="#E34D59"/>
<path d="M89.621 30.6028C90.4359 32.2691 91.1434 33.9803 91.7345 35.7183C91.8957 35.6646 92.0659 35.6377 92.236 35.6377C91.6629 33.9445 90.9912 32.305 90.221 30.7013C90.015 30.7372 89.827 30.7461 89.621 30.6028Z" fill="#E34D59"/>
<path d="M13.4622 25.2633C15.4503 22.3248 17.8146 19.5923 20.555 17.1286C20.4565 16.9943 20.358 16.8599 20.2416 16.7434C17.6534 19.0548 15.3787 21.626 13.4084 24.4391C13.5159 24.7348 13.5607 25.0304 13.4622 25.2633Z" fill="#E34D59"/>
<path d="M70.2051 89.2209C69.8648 89.4001 69.5245 89.5702 69.1752 89.7314C69.3364 89.7941 69.4976 89.9284 69.5872 90.0896C69.9543 89.9105 70.3215 89.7225 70.6797 89.5344C70.5275 89.4896 70.3573 89.3911 70.2051 89.2209Z" fill="#E34D59"/>
<path d="M35.1617 8.43849C35.5737 8.29515 35.9857 8.1518 36.4066 8.01742C36.3618 7.96367 36.3349 7.89199 36.3349 7.82032C36.4782 7.74865 36.7021 7.74865 36.7648 7.90095C38.9679 7.21112 41.2158 6.70046 43.4726 6.36002C43.3472 6.26147 43.2397 6.10917 43.186 5.90312C43.7681 5.86728 44.5741 5.79561 45.1115 6.15397C50.9685 5.50892 56.9061 6.04646 62.5481 7.71282C62.6914 7.60531 62.8705 7.56052 63.0855 7.63219C63.3183 7.71282 63.4705 7.85616 63.5601 8.02638C70.9843 10.4184 77.8533 14.7904 83.2894 21.0616C83.2984 21.0258 83.3163 20.981 83.3342 20.9451C83.4506 20.8466 83.567 20.7839 83.6835 20.757C80.0922 16.609 75.8383 13.2046 71.0112 10.6334C66.0587 7.99054 60.7212 6.32418 55.1239 5.67018C54.9358 5.78665 54.7477 5.86728 54.5597 5.76873C54.5059 5.71498 54.4701 5.66123 54.4522 5.59851C48.7654 5.02514 43.1054 5.5358 37.6245 7.11257C37.0603 7.27383 36.5051 7.44405 35.9498 7.63219C35.9498 7.64115 35.9588 7.6501 35.9588 7.65906C35.6453 7.96367 35.3946 8.21452 35.1617 8.43849Z" fill="#E34D59"/>
<path d="M83.737 21.5812C83.9161 21.7962 84.0952 22.0112 84.2743 22.2352C84.6684 22.719 85.0445 23.2027 85.4117 23.6955C85.4475 23.6596 85.4833 23.6238 85.5281 23.579C85.5729 23.6507 85.6177 23.6149 85.6624 23.579C85.7072 23.6238 85.752 23.6686 85.7968 23.7134C85.7251 23.7582 85.7609 23.803 85.7968 23.8388C85.752 23.8836 85.7072 23.9284 85.6624 23.9732C85.6356 23.9374 85.6177 23.9284 85.5908 23.9374C86.952 25.8008 88.1521 27.736 89.182 29.7248C89.2178 29.5277 89.3253 29.3486 89.4775 29.2052C88.1252 26.643 86.5222 24.2151 84.6684 21.9216C84.5161 21.7335 84.3639 21.5543 84.2116 21.3751C84.0952 21.5005 83.9161 21.5722 83.737 21.5812Z" fill="#E34D59"/>
<path d="M23.0267 15.0858C22.8834 14.9604 22.776 14.8261 22.7222 14.6918C22.4536 14.8978 22.1938 15.1037 21.9341 15.3187C21.8356 15.3993 21.7371 15.4799 21.6476 15.5605C21.8535 15.6142 22.0506 15.6679 22.2565 15.6948C22.5073 15.4888 22.767 15.2828 23.0267 15.0858Z" fill="#E34D59"/>
<path d="M32.5197 9.28928C32.6272 9.35197 32.7257 9.35197 32.8332 9.34302C33.2452 9.16391 33.6661 9.0027 34.087 8.83255C33.9526 8.71612 33.7825 8.5997 33.6123 8.48328C33.3258 8.5997 33.0392 8.71612 32.7526 8.83255C32.7615 8.98479 32.6541 9.13704 32.5197 9.28928Z" fill="#E34D59"/>
<path d="M24.0835 14.2886C24.1462 14.1004 24.2537 13.9033 24.5044 13.7152C24.6477 13.6615 24.7999 13.6525 24.9522 13.6704C26.7971 12.3982 28.7136 11.2784 30.6838 10.3198C30.5853 10.2033 30.4868 10.06 30.3793 9.91663C29.842 10.1764 29.3136 10.4542 28.7942 10.7408C28.8927 10.6961 29.0091 10.7229 29.1345 10.8842C28.9643 11.0544 28.7852 11.2336 28.6151 11.4038C28.5076 11.2515 28.5971 10.8573 28.7763 10.7498C28.6777 10.8036 28.5792 10.8573 28.4807 10.9111C28.3912 11.3321 28.1314 11.6905 27.5762 11.8249C27.5135 11.7353 27.4419 11.7263 27.3792 11.7622C27.3344 11.7084 27.2986 11.6547 27.2717 11.6099C25.9911 12.3714 24.7462 13.1956 23.5372 14.0915C23.6805 14.1542 23.8238 14.2527 23.985 14.3782C24.0029 14.3423 24.0477 14.3155 24.0835 14.2886Z" fill="#E34D59"/>
<path d="M72.7037 87.8324C72.229 88.119 71.7454 88.3966 71.2528 88.6653C71.3872 88.7727 71.5126 88.8892 71.6379 89.0235C71.8708 88.8892 72.1036 88.7638 72.3365 88.6295C72.2021 88.5578 72.1036 88.4056 72.2648 88.2981C72.3723 88.316 72.4798 88.3697 72.5872 88.4862C72.7395 88.3966 72.8828 88.3071 73.035 88.2175C72.9455 88.11 72.838 87.9757 72.7037 87.8324Z" fill="#E34D59"/>
<path d="M22.3462 84.3832C20.9312 83.2365 19.57 82.0002 18.2714 80.6653C18.2804 80.728 18.2714 80.7997 18.2445 80.8713C18.155 80.943 18.0565 81.0147 17.9669 81.0684C19.3819 82.5287 20.8775 83.8815 22.4627 85.1268C22.3015 84.876 22.3104 84.6251 22.3462 84.3832Z" fill="#E34D59"/>
<path d="M17.4205 79.7514C16.8384 79.1063 16.2652 78.4523 15.71 77.7625C14.5099 76.2843 13.4263 74.7434 12.4501 73.1666C12.4412 73.1576 12.4322 73.1397 12.4322 73.1307C12.1994 72.7545 11.9755 72.3692 11.7516 71.984C11.6441 72.0915 11.5366 72.199 11.4292 72.3065C11.4023 72.2976 11.3754 72.2886 11.3486 72.2797C12.5128 74.2954 13.8472 76.2305 15.3338 78.0671C15.7548 78.5867 16.1846 79.0884 16.6145 79.5812C16.9011 79.7156 17.2145 79.9127 17.4205 79.7514Z" fill="#E34D59"/>
<path d="M23.2865 85.1178C23.1253 85.288 22.9731 85.3686 22.8119 85.3866C24.7463 86.8737 26.8061 88.1997 28.9734 89.3643C29.4212 89.5973 29.86 89.8302 30.3167 90.0542C30.3257 89.875 30.3346 89.6868 30.3346 89.4987C27.8808 88.2713 25.5165 86.811 23.2865 85.1178Z" fill="#E34D59"/>
<path d="M10.8649 70.3625C10.8112 70.255 10.7485 70.1385 10.6948 70.031C10.6768 70.031 10.6589 70.022 10.641 70.022C10.6142 69.9504 10.5962 69.8787 10.5873 69.8249C10.032 68.723 9.53052 67.5942 9.07378 66.4653C8.97527 66.5101 8.88571 66.528 8.82302 66.5101C8.63495 66.7879 9.09169 67.0745 9.14543 67.3523C9.08274 67.406 9.029 67.4598 8.97527 67.5225C9.38723 68.4901 9.83501 69.4307 10.3097 70.3625C10.4888 70.2997 10.6768 70.2997 10.8649 70.3625Z" fill="#E34D59"/>
<path d="M39.2006 92.7598C39.0752 92.8851 38.923 93.0374 38.7528 93.1807C39.1738 93.2882 39.5947 93.3956 40.0156 93.4852C39.8902 93.315 39.8006 93.1001 39.7738 92.9031C39.5857 92.8583 39.3887 92.8045 39.2006 92.7598Z" fill="#E34D59"/>
<path d="M49.7505 94.1031C46.5981 94.0852 43.4547 93.727 40.3829 93.0464C40.4456 93.2255 40.4725 93.4225 40.4366 93.5837C42.0487 93.933 43.6786 94.2017 45.3354 94.3718C46.4638 94.4882 47.5922 94.5688 48.7206 94.5957C48.7206 94.542 48.7385 94.4882 48.7923 94.4435C49.0699 94.5151 49.4192 94.2912 49.7505 94.1031Z" fill="#E34D59"/>
<path d="M30.3794 89.5166C30.5585 89.7764 30.6839 90.0362 30.8362 90.296C33.1288 91.389 35.5021 92.2759 37.938 92.9568C38.1082 92.7866 38.2962 92.6522 38.4932 92.5716C35.708 91.828 32.9945 90.8067 30.3794 89.5166Z" fill="#E34D59"/>
<path d="M68.8171 89.9108C68.3514 90.1347 67.8768 90.3406 67.4021 90.5466C67.4648 90.6899 67.5006 90.8601 67.5096 91.0481C68.0738 90.8063 68.6291 90.5556 69.1754 90.2959C69.0321 90.2063 68.8977 90.0541 68.8171 89.9108Z" fill="#E34D59"/>
<path d="M12.9696 26.0158C12.7905 25.8546 12.7099 25.6933 12.683 25.541C11.9576 26.6519 11.277 27.7987 10.6501 28.9812C9.7635 30.6386 8.99331 32.3408 8.3306 34.0878C8.47389 34.1416 8.64404 34.1864 8.8142 34.2491C9.88888 31.3822 11.286 28.6229 12.9696 26.0158Z" fill="#E34D59"/>
<path d="M6.91554 40.61C6.74538 40.3501 6.65582 40.0545 6.73642 39.8216C6.87076 39.6782 7.01405 39.6066 7.14838 39.5886C7.20212 39.3467 7.26481 39.1138 7.3275 38.8719C7.16629 38.7644 7.00509 38.7555 6.84389 38.6927C6.65582 39.4274 6.47671 40.171 6.32446 40.9235C6.47671 40.9952 6.64687 41.0579 6.80807 41.1296C6.84389 40.9504 6.87971 40.7802 6.91554 40.61Z" fill="#E34D59"/>
<path d="M13.3188 25.4873C13.292 25.5142 13.2561 25.541 13.2203 25.5679C13.2203 25.5858 13.2203 25.6127 13.2203 25.6306C13.2561 25.5769 13.283 25.5321 13.3188 25.4873Z" fill="#E34D59"/>
<path d="M6.37821 43.5573C6.39612 43.4409 6.41404 43.3245 6.43195 43.1991C6.31552 43.2528 6.19014 43.2528 6.08268 43.217C6.02894 43.3155 5.9573 43.3961 5.8767 43.4499C5.84983 43.6558 5.81401 43.8618 5.78714 44.0588C5.82296 44.0947 5.84983 44.1305 5.88565 44.1753C6.01999 43.8708 6.19014 43.7096 6.37821 43.5573Z" fill="#E34D59"/>
<path d="M6.4857 42.8672C6.51257 42.706 6.53943 42.5537 6.5663 42.3925C6.38719 42.2224 6.2439 42.0343 6.14538 41.8373C6.10956 42.0522 6.06478 42.2761 6.02896 42.491C6.21703 42.6254 6.39614 42.7239 6.4857 42.8672Z" fill="#E34D59"/>
<path d="M8.74247 65.6142C8.25887 64.3241 7.83795 63.0251 7.47077 61.7081C7.46182 61.7171 7.46182 61.7171 7.45286 61.726C7.19315 61.5737 7.35435 61.4214 7.25584 61.2691C7.2827 61.2423 7.30957 61.2243 7.34539 61.2243C7.30957 61.072 7.26479 60.9197 7.22897 60.7585C7.17523 60.7943 7.1215 60.8122 7.06777 60.8122C6.99612 60.6062 6.99612 60.5076 7.14837 60.418C5.91249 55.3204 5.608 50.0615 6.20803 44.9102C6.03787 44.9639 5.85875 44.9818 5.6886 44.9639C5.67069 45.0893 5.66173 45.2058 5.64382 45.3312C5.24081 49.1656 5.33037 52.9911 5.90353 56.7538C6.19011 58.6442 6.60207 60.5166 7.13941 62.3711C7.4439 63.4372 7.79317 64.4854 8.17827 65.5246C8.35738 65.435 8.5544 65.4977 8.74247 65.6142Z" fill="#E34D59"/>
<path d="M64.8496 91.6758C65.0287 91.837 65.1988 91.8729 65.3779 91.8998C65.7541 91.7654 66.1213 91.622 66.4884 91.4787C66.7392 91.2726 66.7392 91.0576 66.7123 90.8516C65.8526 91.201 64.9839 91.5235 64.1152 91.8191C64.1062 91.855 64.0973 91.8818 64.0883 91.9177C63.9092 92.0162 63.7301 92.0341 63.551 92.0073C63.4166 92.0521 63.2823 92.0969 63.148 92.1327C63.1748 92.1685 63.2107 92.2044 63.2465 92.2402C62.9957 92.3119 62.7898 92.3208 62.6286 92.294C58.7687 93.4407 54.8013 94.0409 50.834 94.1126C50.8519 94.1395 50.8608 94.1664 50.8787 94.2022C50.6101 94.4262 50.422 94.4978 50.2787 94.6412C54.3714 94.6233 58.4194 94.0409 62.3778 92.9032C63.0674 92.7061 63.748 92.491 64.4286 92.2581C64.4197 92.2223 64.4107 92.1864 64.4107 92.1506C64.5451 91.9714 64.6973 91.8191 64.8496 91.6758Z" fill="#E34D59"/>
<path d="M42.5232 98.0276C42.4605 98.0992 42.3889 98.1619 42.3351 98.2157C42.3351 98.144 42.353 98.0724 42.3799 98.0007C41.3052 97.8305 40.2485 97.6244 39.1827 97.3825C38.9588 97.5975 38.717 97.7498 38.4305 97.7857C38.2155 97.5259 38.1439 97.3198 38.1618 97.1406C35.5557 96.4866 33.0033 95.6266 30.5226 94.5425C30.4331 94.6321 30.3346 94.6948 30.2271 94.6948C30.0838 94.6232 29.8868 94.3544 29.6539 94.1573C27.6747 93.2435 25.7403 92.1953 23.8775 91.0127C23.7969 91.1561 23.7342 91.2994 23.7163 91.4428C23.3133 91.1292 23.1163 90.8156 23.0805 90.4931C19.0683 87.8323 15.3965 84.5265 12.2083 80.5935C11.671 79.9216 11.1516 79.2497 10.65 78.5598C10.5515 78.524 10.453 78.4523 10.3635 78.3269C10.3814 78.2911 10.3903 78.2552 10.4082 78.2194C7.90961 74.7075 5.93041 70.9627 4.4796 67.0835C4.10346 67.415 3.72732 67.5314 3.35119 67.1641C3.45865 66.6714 3.81688 66.1876 3.98704 65.6948C3.78106 65.0946 3.59299 64.4854 3.40492 63.8762C3.23476 63.6701 3.01983 63.4641 2.95714 63.258C3.01983 63.1684 3.10043 63.1057 3.17207 63.0788C3.08252 62.7563 2.99296 62.4338 2.91236 62.1113C2.80489 62.3263 2.48249 62.3263 2.30338 62.4786C1.8735 62.7832 2.6616 63.0878 2.30338 63.3924C1.59588 62.7653 1.97202 62.1382 1.32721 61.5021C1.51528 62.2905 1.72126 63.0788 1.94515 63.8672C2.65265 66.313 3.5303 68.6871 4.59602 70.9806C4.63184 70.9269 4.67662 70.8731 4.7214 70.8193C4.86469 71.0433 4.97216 71.2673 4.82887 71.4913C6.11848 74.2058 7.65885 76.8039 9.44103 79.2676C9.63805 79.1511 9.83508 79.4647 10.0321 79.187C10.2918 79.3393 10.1306 79.4916 10.2291 79.6439C10.0321 79.7245 9.83508 79.6708 9.63805 79.5364C10.1217 80.1993 10.6232 80.8444 11.1336 81.4805C11.2411 81.6059 11.3396 81.7403 11.4471 81.8657C11.5008 81.8388 11.5635 81.803 11.6172 81.7671C11.7247 81.9015 11.7337 82.0449 11.7068 82.1792C15.8443 87.1067 20.7878 91.1292 26.4299 94.1394C31.3465 96.7644 36.6125 98.5293 42.1112 99.3983C42.362 98.9593 42.4874 98.5113 42.568 98.0455C42.568 98.0276 42.5411 98.0276 42.5232 98.0276ZM2.31233 64.8169C2.7422 64.351 3.18103 64.2704 3.6109 64.8169C3.55717 65.6501 2.34815 65.5694 2.31233 64.8169ZM13.0502 83.2095C12.9875 83.1468 12.9158 83.0751 12.8531 83.0124C12.9427 82.9228 13.0233 82.8422 13.1128 82.7526C13.3099 82.9049 13.2382 83.0572 13.0502 83.2095ZM12.9069 82.2957C12.7725 82.0538 13.1576 82.1255 13.2293 81.9732C13.292 82.0359 13.3636 82.1076 13.4263 82.1703C13.2472 82.4032 13.077 82.1613 12.9069 82.2957Z" fill="#E34D59"/>
<path d="M82.5999 87.904C83.8178 86.8559 84.9731 85.7629 86.0836 84.6161C86.0747 84.4638 86.1284 84.3115 86.2717 84.1503C86.3254 84.1951 86.3702 84.2309 86.406 84.2757C86.8986 83.7561 87.3732 83.2275 87.8389 82.69C87.7046 82.7168 87.5703 82.7258 87.427 82.6183C87.212 82.8154 87.3822 83.0125 87.1046 83.2006C86.9075 83.1379 86.7105 83.3888 86.5224 83.1379C86.4239 83.765 85.6896 83.9084 85.2597 83.4694C84.5074 84.2578 83.7372 85.0282 82.9223 85.7718C82.9312 85.8345 82.9312 85.9062 82.9402 85.9689C82.8506 86.1033 82.77 86.0675 82.6805 85.9868C81.9998 86.605 81.3103 87.1963 80.5849 87.7786C79.9848 88.2714 79.3669 88.7372 78.7489 89.1941C78.6415 89.4987 78.5877 89.7944 78.3639 90.099C78.1937 90.0273 78.0146 89.9377 77.8444 89.8392C75.0324 91.8101 72.077 93.4406 69.0231 94.7397C69.0231 94.7487 69.0231 94.7487 69.0231 94.7576C68.9783 94.7755 68.9425 94.7845 68.8977 94.7935C64.1871 96.7823 59.2525 97.9739 54.2821 98.4128C54.2732 98.601 54.2373 98.7981 54.1747 98.9862C53.8702 99.1564 53.5657 99.0848 53.2612 98.9862C53.091 99.0937 53.2343 99.2012 53.3239 99.3087C52.482 99.5506 52.2044 99.1296 52.1507 98.5472C49.0789 98.6816 46.0071 98.5204 42.9801 98.0814C42.9174 98.5562 42.989 99.04 43.0876 99.5148C43.6428 99.5954 44.207 99.6581 44.7712 99.7209C45.3802 99.7836 45.9802 99.8373 46.5892 99.8821C46.6429 99.8194 46.7235 99.7746 46.84 99.7657C46.8668 99.8104 46.8847 99.8552 46.9116 99.9C49.652 100.07 52.3746 100.025 55.0792 99.7477C54.9896 99.7298 54.9001 99.7209 54.8374 99.7298C54.7747 99.2998 54.7836 98.8608 54.9717 98.4308C55.0433 98.825 55.2045 99.2102 55.6255 99.6044C55.6165 99.6402 55.6076 99.6671 55.5986 99.694C57.4255 99.4879 59.2525 99.1833 61.0526 98.7712C61.0257 98.7443 60.9899 98.7175 60.963 98.6906C61.0347 98.2337 61.5541 98.2695 61.778 98.601C62.4765 98.4308 63.1751 98.2426 63.8736 98.0455C64.5184 97.8574 65.1543 97.6603 65.7812 97.4542C65.7812 97.4542 68.5126 96.4598 68.6828 96.3881C68.5843 96.2896 68.4768 96.1821 68.3783 96.0835C68.5932 95.8596 69.0052 95.4385 69.1574 95.0443C69.3545 95.1339 69.5515 95.1608 69.7396 95.3668C69.6231 95.6804 69.3992 95.9671 69.1216 96.209C69.659 95.985 70.1873 95.761 70.7157 95.5191C70.4381 95.2056 70.4829 94.7128 70.859 94.6232C70.9575 94.8382 71.0202 95.1876 70.9575 95.4027C72.2651 94.8024 73.5368 94.1394 74.7905 93.4317C74.7905 93.4317 75.7398 92.939 76.4205 92.4552C78.1579 91.3711 79.8236 90.1796 81.4356 88.8806L82.5999 87.904ZM51.2999 99.6133C51.1745 99.4162 51.2282 99.2192 51.2372 99.031C51.5686 98.9683 51.4253 99.4521 51.2999 99.6133ZM76.3041 92.0968C76.1518 91.8191 76.0981 91.5324 76.3667 91.2547C76.7518 91.5324 76.5996 91.8101 76.3041 92.0968Z" fill="#E34D59"/>
<path d="M6.56628 25.2006C6.33344 25.6127 6.10954 26.0158 5.88565 26.4369C5.58116 27.0103 5.28562 27.5926 4.99904 28.1839C5.05278 28.2735 5.09756 28.3451 5.10651 28.3989C5.07069 28.4527 5.03487 28.4885 4.99009 28.5243C5.1692 28.7125 5.24085 29.0081 5.05278 29.2142C4.88262 29.2769 4.69455 29.241 4.5423 29.1425C4.0587 30.1996 3.61092 31.2747 3.19896 32.3587C3.46763 32.4035 3.7363 32.529 4.01392 32.8515C3.94228 33.0396 3.94228 33.2278 3.8975 33.4159C3.96914 33.7384 3.9781 34.0609 3.68256 34.3745C3.52136 34.2222 3.42285 34.0609 3.36016 33.9086C3.16314 33.8818 2.9482 33.7832 2.74222 33.6399C1.84665 36.238 1.16603 38.9077 0.709287 41.6312C0.95109 42.0254 1.18394 42.4106 0.879444 42.9034C0.754065 42.9034 0.628686 42.8944 0.512263 42.8944C0.485396 43.0826 0.458529 43.2707 0.431662 43.4588C0.601819 43.2886 0.780932 43.1094 0.95109 42.9392C1.12125 43.2259 1.24663 43.5036 1.14811 43.7814C0.897356 44.0322 0.637642 44.0322 0.386884 43.8082C0.351061 44.1218 0.315238 44.4354 0.279416 44.7579C0.243593 45.0625 0.216726 45.376 0.189859 45.6806C0.252549 45.8598 0.261505 46.03 0.145081 46.2092C-0.2221 51.0381 0.109259 55.8401 1.12125 60.5435C1.18394 60.5077 1.25558 60.4808 1.33618 60.4629C2.14219 60.642 1.77501 61.2423 2.11532 61.7619C2.35713 61.95 2.60788 61.6275 2.84969 61.8246C1.03169 54.5231 0.942134 46.9259 2.51833 39.6513C2.24966 39.2123 2.41086 38.7285 2.77804 38.5225C3.3512 36.1304 4.11243 33.7832 5.05278 31.4987C4.96322 31.5345 4.87366 31.5524 4.79306 31.5793C4.19303 30.9791 5.0886 30.343 5.37518 30.7372C6.09163 29.0708 6.9066 27.4313 7.81112 25.8456C7.19318 25.55 7.51558 24.9587 8.05292 24.4032C7.87381 24.3764 7.69469 24.448 7.51558 24.2868C7.59618 24.1255 7.62305 23.9642 7.60514 23.803C7.50663 23.8657 7.39916 23.9194 7.30064 23.9732C7.24691 24.0628 7.18422 24.1524 7.13049 24.2509L6.56628 25.2006ZM1.5153 39.1406C1.66754 39.1406 1.81979 39.2929 1.97203 39.4632C1.81979 39.714 1.66754 39.6334 1.5153 39.7857C1.372 39.5707 1.21976 39.3557 1.5153 39.1406ZM1.25558 49.9451C0.906311 50.2587 0.565997 49.7838 0.216726 49.5509C0.53913 48.9686 1.13916 49.5599 1.25558 49.9451ZM0.995868 51.1187C0.798844 51.1098 0.342105 50.7335 0.673464 50.5364C0.467484 50.4647 0.100303 50.5364 0.0913472 50.2139C0.458529 50.1243 1.10334 50.4647 1.26454 50.8679C1.16603 50.9395 1.08542 51.0291 0.995868 51.1187Z" fill="#E34D59"/>
<path d="M92.7643 74.4477C92.9166 73.9729 93.5076 73.6683 94.0271 73.7041C94.0539 73.6504 94.0808 73.6056 94.1077 73.5518C94.8241 72.208 95.4779 70.8373 96.069 69.4397C95.4868 69.6547 94.8868 69.807 94.3137 69.9862H94.3047C92.3524 74.3402 89.7284 78.4524 86.4685 82.1524C86.5939 82.1793 86.7193 82.2241 86.8446 82.2957C86.8984 81.8926 87.3014 81.5253 87.6865 81.7134C87.9193 81.4536 87.6596 81.1938 87.9462 80.934C88.2955 80.8534 88.7791 80.8623 89.0925 81.1759C89.3343 80.8802 89.5672 80.5756 89.8 80.271C89.6746 79.6977 90.203 79.1332 90.7404 78.9989C90.8657 78.8286 90.9822 78.6584 91.1075 78.4792C90.9822 78.3897 90.8836 78.2642 90.812 78.103C90.9822 77.4848 91.4837 77.1623 91.9135 77.2787C92.227 76.795 92.5315 76.3112 92.827 75.8274C92.8897 75.8184 92.9882 75.8095 93.1046 75.8005C93.2121 75.7199 93.3106 75.6661 93.4091 75.6213C93.0867 75.478 92.827 75.1286 92.7643 74.4477Z" fill="#E34D59"/>
<path d="M17.304 12.1654C15.5398 13.6884 13.8919 15.3279 12.3695 17.0569C12.8979 16.7703 13.6143 16.9494 13.7397 17.5945C15.4502 15.6773 17.3399 13.8765 19.3997 12.2012C20.2057 11.5472 21.0385 10.9201 21.8714 10.3198C22.0326 10.069 22.2834 9.90772 22.5431 9.85397C27.0657 6.75419 31.9555 4.52342 37.0154 3.12583C37.1229 2.90185 37.2841 2.67788 37.5169 2.44495C37.508 2.12243 37.3289 1.86262 37.2304 1.62073C36.8632 1.71928 36.496 1.81782 36.1199 1.92533C35.5377 2.09555 34.9646 2.27473 34.3914 2.46287L31.642 3.45731C29.5464 4.28153 27.5135 5.24909 25.5522 6.35999C25.5432 6.59293 25.4179 6.80794 25.1313 6.91545C25.0238 6.82586 24.9343 6.73627 24.8537 6.64668C24.5402 6.6646 24.182 6.68252 23.7879 6.69147C23.9939 7.67695 23.985 8.83265 22.9192 9.1283C22.6326 8.76098 22.2296 8.75202 22.2655 8.37575C22.2565 8.38471 22.2476 8.38471 22.2386 8.39367C21.952 8.92224 21.4684 9.21789 20.9848 9.26268C20.1519 9.86293 19.328 10.4811 18.531 11.1351C18.5041 11.153 18.4772 11.1799 18.4504 11.1978L17.304 12.1654ZM32.054 3.82462C31.8838 4.05755 31.7047 4.05755 31.5346 3.82462C31.7047 3.58273 31.8749 3.58273 32.054 3.82462ZM22.8745 9.22685C22.8565 9.46874 22.7849 9.29852 22.6147 9.48666C22.3102 9.2806 22.6774 8.92224 22.8745 9.22685Z" fill="#E34D59"/>
<path d="M8.49183 23.3192C8.42019 23.355 8.33959 23.3998 8.26794 23.4357C8.34854 23.57 8.42019 23.7044 8.60825 23.8388C8.5993 23.8746 8.58139 23.9015 8.57243 23.9284C8.85006 23.7044 9.11873 23.5073 9.3068 23.3819C9.36948 23.2834 9.43217 23.1848 9.49486 23.0952C9.20828 23.0235 8.95752 22.7637 8.94857 22.4771C9.26202 22.0829 9.57546 22.2441 9.88891 22.5218C10.8561 21.1063 11.9129 19.7267 13.0413 18.4097C12.5129 18.5799 11.9218 18.3739 11.8771 17.6392C11.9039 17.5676 11.9398 17.5049 11.9756 17.4421C11.698 17.7647 11.4024 18.1589 11.2591 18.3739C10.0949 19.7983 9.01126 21.2855 8.01718 22.8264C8.2769 22.8623 8.48288 22.9967 8.49183 23.3192Z" fill="#E34D59"/>
<path d="M38.1797 2.45395C38.2245 2.55249 38.2693 2.66896 38.3051 2.79438C40.0067 2.37332 41.7172 2.05079 43.4367 1.81786C43.0964 1.37888 42.8635 0.93093 42.8187 0.491943C42.6217 0.51882 42.4157 0.554656 42.2187 0.581533C42.2635 0.671122 42.2814 0.760711 42.2725 0.859259C41.6097 1.1997 41.0903 2.53458 40.3201 2.03288C40.2216 1.61181 40.4634 1.22657 40.7231 0.8503C40.0694 0.975725 39.4156 1.11011 38.7618 1.26241C38.932 1.6566 38.8424 2.16726 38.1797 2.45395Z" fill="#E34D59"/>
<path d="M44.3502 1.11902C44.5203 1.41466 44.6995 0.877126 44.8696 1.11902C45.0577 1.28924 45.0756 1.45946 45.1204 1.62968C49.4907 1.19965 53.8969 1.35195 58.2135 2.09554C58.0702 2.00595 57.9359 1.91636 57.8284 1.80885C58.3747 1.71031 58.9121 1.9522 59.4584 2.31951C63.3003 3.08102 67.0617 4.29943 70.644 5.97475C71.1007 5.90308 71.6649 6.0733 71.9873 6.52124C71.9694 6.54812 71.9425 6.575 71.9246 6.60187C72.0321 6.65563 72.1396 6.70938 72.256 6.77209C72.3903 6.27935 72.8291 5.99267 73.268 5.7239C72.5247 5.32971 71.7724 4.96239 71.0112 4.60403C70.6977 4.92656 70.3663 5.15053 69.9723 4.89072C69.9096 4.64883 69.9723 4.4159 70.0798 4.18297C69.426 3.89628 68.7722 3.62751 68.1095 3.3677C68.0468 3.69918 68.1274 4.03962 68.1543 4.3711C67.9125 4.5682 67.6797 4.62195 67.4379 4.5682C67.2498 4.04858 66.9005 3.63647 66.5244 3.26916C66.5871 3.1079 66.6677 2.97351 66.7662 2.87496C65.4318 2.40014 64.0795 1.98803 62.7093 1.62968C62.2525 1.74614 61.6794 1.70135 61.3928 1.30715C61.3391 1.2982 61.2853 1.28028 61.2316 1.27132C60.8196 1.77302 60.2017 1.96116 59.8255 1.00255C59.8345 0.993592 59.8435 0.984634 59.8524 0.975675C59.7987 0.966716 59.7449 0.957757 59.6912 0.939839C59.7181 0.975675 59.7449 1.02047 59.7629 1.06526C59.4494 1.71031 58.7777 1.77302 58.2673 1.26236C58.3568 1.06526 58.5091 0.886085 58.6792 0.760661C57.5329 0.563564 56.3776 0.393345 55.2134 0.276879C51.7923 -0.0814774 48.3802 -0.0904363 45.004 0.241044C45.0577 0.590441 44.8786 0.948798 44.3502 1.11902Z" fill="#E34D59"/>
<path d="M97.2154 61.4663C96.8751 62.8729 96.4721 64.2615 96.0154 65.6322C96.3288 65.5337 96.7049 65.7935 96.6512 66.0891C96.4811 66.3668 96.3019 66.2414 96.1318 66.4833C96.0154 66.3579 95.9079 66.2414 95.8452 66.116C95.675 66.5998 95.5049 67.0746 95.3168 67.5494C95.3526 67.648 95.3795 67.7465 95.5407 67.8451C95.3168 68.1049 95.1646 68.3647 95.281 68.6245C95.7377 68.8395 96.1407 68.6155 96.5258 68.302C97.305 66.331 97.9498 64.3063 98.4692 62.2547C97.9229 62.2905 97.3498 61.968 97.2154 61.4663Z" fill="#E34D59"/>
<path d="M79.931 10.8215C79.7608 11.0186 80.1548 11.2157 79.8683 11.4039C79.6354 11.2605 79.4115 11.1709 79.1787 11.0903C82.3132 13.4375 85.2058 16.2148 87.7851 19.3952C88.2418 19.9596 88.6806 20.524 89.1015 21.1064C89.1105 21.0705 89.1195 21.0437 89.1374 21.0078C89.6837 21.5543 90.221 22.0919 90.7673 22.6383C90.615 22.7548 90.4628 22.8086 90.3106 22.8175C92.5853 26.1861 94.3854 29.7696 95.7198 33.4607C96.2392 32.9142 97.3497 33.9983 97.1168 34.6523C96.8213 35.0106 96.4541 34.9389 96.1496 34.706C96.275 35.0823 96.3914 35.4675 96.5079 35.8438C96.7676 35.3063 97.6004 35.3421 97.7706 35.9603C97.8512 35.9513 97.9229 35.9423 97.9945 35.9513C97.7348 35.0644 97.4572 34.1953 97.1527 33.3263C96.9019 33.2726 96.6601 33.2188 96.4094 33.1561C96.275 32.7171 96.4631 32.4484 96.7765 32.2781C94.9496 27.4582 92.3972 22.9698 89.1463 18.8756C89.0836 18.8846 89.012 18.8935 88.9314 18.8935C88.6627 18.5531 88.4388 18.2395 88.412 17.9708C86.1462 15.2562 83.6386 12.8104 80.9071 10.6603C80.7549 10.9738 80.4325 11.1799 79.931 10.8215Z" fill="#E34D59"/>
<path d="M74.0291 6.43168C74.459 6.54815 74.7814 6.96026 74.6202 7.53363C74.4769 7.66801 74.3247 7.74864 74.1814 7.81136C75.5606 8.59974 76.9129 9.4598 78.2204 10.4005C78.2562 10.284 78.3368 10.1676 78.507 10.0421C78.9368 9.95254 79.3757 10.6513 79.8055 10.8216C80.0026 10.5349 79.8503 10.2571 80.0026 9.97941C78.1308 8.57286 76.1695 7.30966 74.1008 6.17188C74.0918 6.17188 74.0829 6.17188 74.0739 6.17188C74.065 6.25251 74.056 6.34209 74.0291 6.43168ZM78.498 9.25374C78.5607 9.31645 78.6324 9.38813 78.695 9.45084C78.704 9.63002 78.4174 9.90774 78.2383 9.90774C77.9696 9.69273 78.2025 9.27166 78.498 9.25374Z" fill="#E34D59"/>
<path d="M97.3677 36.4709C97.1169 36.4261 96.8035 36.3723 96.6064 36.1842C98.6125 43.0019 99.0872 50.1332 98.0752 57.0585C98.111 57.1212 98.1468 57.1929 98.1826 57.2735C98.12 57.3272 98.0662 57.372 98.0214 57.4258C97.9588 57.8379 97.8871 58.259 97.8155 58.6711C97.9498 59.0742 98.1916 59.4863 98.2185 59.8895C98.5319 59.8895 98.7379 60.1851 98.8722 60.5435C99.1409 59.2803 99.3648 57.9992 99.5349 56.718C99.4723 56.6732 99.4275 56.5926 99.4096 56.5209C99.2573 56.4761 99.1051 56.3866 98.9618 56.2432C99.0245 56.1805 98.9349 56.1088 98.8991 56.0461C98.9707 55.6609 99.3379 55.2757 99.7409 55.0696C100.332 49.2284 99.9111 43.414 98.4871 37.761C98.2991 37.761 98.0573 37.6893 97.7707 37.528C97.6811 37.1607 97.3945 36.8113 97.3677 36.4709Z" fill="#E34D59"/>
<path d="M50.0818 91.8549C73.2492 91.8549 92.0301 73.0671 92.0301 49.8913C92.0301 26.7155 73.2492 7.92773 50.0818 7.92773C26.9144 7.92773 8.13354 26.7155 8.13354 49.8913C8.13354 73.0671 26.9144 91.8549 50.0818 91.8549Z" fill="#E34D59"/>
<path d="M24.044 47.688L24.604 43.824H33.508L33.872 41.248H24.996L25.528 37.496H22.224L21.664 41.248H12.704L12.34 43.824H21.272L20.684 47.688H10.688L10.324 50.264H20.32L18.444 62.696H21.888L23.68 50.264H33.872L34.236 47.688H24.044ZM8 61.268H11.864C14.328 58.076 16.204 55.388 18.248 51.888H14.832C12.844 55.08 10.912 57.768 8 61.268ZM25.304 51.888C26.788 55.612 27.908 58.244 29.336 61.268H33.06C31.24 57.992 29.868 55.08 28.58 51.888H25.304ZM44.764 44.16C43.7 41.416 42.972 39.484 42.244 37.552H39.304C40.06 39.904 40.816 41.892 41.6 44.16H44.764ZM60.444 43.572H55.964C57.532 42.676 59.212 41.64 60.696 40.604C61.228 40.24 61.536 39.568 61.62 38.952C61.704 38.364 61.2 38.14 60.472 38.14H46.64L47.256 40.352H56.972C57.14 40.352 57.112 40.464 56.972 40.576C56.3 41.136 55.432 41.612 54.48 42.088L53.668 41.08H50.42C51.092 41.976 51.736 42.816 52.324 43.572H47.116L44.932 58.72H47.844L48.516 54.128H51.68L51.12 58.3H54.004L54.564 54.128H57.952L57.672 56.452H54.984L55.796 58.748H60.276L62.012 45.252C62.18 43.936 61.704 43.572 60.444 43.572ZM52.8 45.784L52.548 47.744H49.44L49.72 45.784H52.8ZM58.96 46.148L58.764 47.744H55.432L55.684 45.784H58.624C58.876 45.784 59.016 45.84 58.96 46.148ZM42.272 57.544C42.748 56.704 43.168 55.892 43.504 55.164C43.812 53.036 44.176 49.676 44.4 47.576C44.512 46.4 44.176 46.092 43.028 46.092H38.576L38.184 48.668H40.984C41.32 48.668 41.376 48.78 41.348 49.116C41.236 50.6 40.956 52.868 40.676 54.352C39.472 56.816 37.596 59.896 35.748 62.696H39.136C39.724 61.856 40.368 60.82 41.012 59.756C44.82 62.192 48.572 62.724 53.276 62.696H60.612L61.592 60.008H54.144C49.468 60.008 45.128 59.532 42.272 57.544ZM48.824 52L49.132 49.872H52.24L51.96 52H48.824ZM54.844 52L55.124 49.872H58.484L58.232 52H54.844ZM87.8 41.696L88.388 37.496H85.336L84.748 41.696H74.752L74.36 44.244H84.412L82.844 55.64H78.476L79.148 58.16H85.56L87.464 44.244H90.796L91.188 41.696H87.8ZM73.492 44.02C72.484 41.808 71.476 39.428 70.832 37.748H67.668C68.424 39.848 69.208 42.144 69.908 44.02H73.492ZM78.224 45.812H75.284C76.292 48.248 77.272 50.796 78.196 53.064H81.584C80.296 50.656 79.148 48.024 78.224 45.812ZM70.804 57.264C71.224 56.48 71.616 55.752 71.924 55.136L72.708 48.192C72.82 47.1 72.512 46.764 71.42 46.764H66.212L65.932 49.116H69.18C69.516 49.116 69.544 49.256 69.516 49.564L68.928 54.296C67.64 57.348 65.736 59.98 63.608 62.696H67.22C67.92 61.8 68.676 60.68 69.404 59.56C72.176 61.324 76.208 62.696 81.444 62.696H88.5L89.48 59.98H82.312C78 59.98 73.548 59.196 70.804 57.264Z" fill="white"/>
</svg>
