<svg width="14" height="14" viewBox="0 0 14 14" fill="none" xmlns="http://www.w3.org/2000/svg">
<g clip-path="url(#clip0_795_25251)">
<path fill-rule="evenodd" clip-rule="evenodd" d="M12.25 7C12.25 5.96165 11.9421 4.94661 11.3652 4.08325C10.7883 3.21989 9.96834 2.54702 9.00902 2.14966C8.04971 1.7523 6.9941 1.64832 5.9757 1.85089C4.9573 2.05346 4.02194 2.55349 3.28771 3.28772C2.55349 4.02195 2.05339 4.95737 1.85082 5.97577C1.64825 6.99417 1.75229 8.04978 2.14965 9.00909C2.54701 9.96841 3.21988 10.7884 4.08324 11.3652C4.9466 11.9421 5.96164 12.25 6.99999 12.25C8.39238 12.25 9.72771 11.6968 10.7123 10.7123C11.6968 9.72771 12.25 8.39239 12.25 7ZM14 7C14 8.38447 13.5895 9.73783 12.8203 10.889C12.0511 12.0401 10.9578 12.9373 9.6787 13.4672C8.39962 13.997 6.99226 14.1356 5.63439 13.8655C4.27652 13.5954 3.02925 12.9287 2.05028 11.9498C1.07132 10.9708 0.404609 9.72353 0.134513 8.36566C-0.135584 7.00779 0.00301462 5.60031 0.532828 4.32123C1.06264 3.04215 1.95981 1.94886 3.11095 1.17969C4.2621 0.410518 5.61552 0 6.99999 0C8.85651 0 10.6369 0.737477 11.9497 2.05023C13.2625 3.36299 14 5.14348 14 7V7Z" fill="#0E9D61"/>
<path d="M9.94995 10.02H8.54004L8.08997 8.64001H5.89001L5.43994 10.02H4.04004L6.26001 4.02002H7.78003L9.94995 10.02ZM7.78003 7.64001L7.09998 5.53998C7.04462 5.37161 7.01104 5.19691 7 5.02002V5.02002C6.98254 5.1936 6.94566 5.36468 6.89001 5.53003L6.19995 7.64001H7.78003Z" fill="#0E9D61"/>
</g>
<defs>
<clipPath id="clip0_795_25251">
<rect width="14" height="14" fill="white"/>
</clipPath>
</defs>
</svg>
