<svg width="38" height="18" viewBox="0 0 38 18" fill="none" xmlns="http://www.w3.org/2000/svg">
<path fill-rule="evenodd" clip-rule="evenodd" d="M0 0H38V18H0V0Z" fill="#E34D59"/>
<path d="M13.024 3.16C13.16 3.472 13.296 3.848 13.432 4.288H18.268V4.912H7.72V4.288H12.748C12.62 3.912 12.476 3.576 12.316 3.28L13.024 3.16ZM15.352 14.14L15.196 13.552L16.168 13.576C16.712 13.576 16.984 13.36 16.984 12.928V9.484H9.016V14.164H8.404V8.896H17.596V13.06C17.596 13.78 17.188 14.14 16.372 14.14H15.352ZM9.748 5.836H16.264V8.044H9.748V5.836ZM15.64 7.516V6.364H10.372V7.516H15.64ZM10.72 10.384H15.304V12.7H10.72V10.384ZM14.704 12.184V10.912H11.308V12.184H14.704ZM23.884 3.184C23.62 3.624 23.396 3.968 23.212 4.216H27.964V4.696C27.436 5.328 26.896 5.872 26.344 6.328H30.124V6.976H21.904V9.028C21.848 11.188 21.224 12.916 20.032 14.212L19.516 13.756C20.62 12.628 21.196 11.052 21.244 9.028V6.328H25.468C26.076 5.848 26.632 5.332 27.136 4.78H22.768C21.968 5.74 21.036 6.568 19.972 7.264L19.54 6.736C21.092 5.76 22.32 4.524 23.224 3.028L23.884 3.184ZM27.748 9.124H24.304V12.748C24.304 13.172 24.528 13.384 24.976 13.384H28.288C28.888 13.384 29.268 13.272 29.428 13.048C29.58 12.768 29.692 12.272 29.764 11.56L30.376 11.764C30.28 12.796 30.096 13.436 29.824 13.684C29.576 13.892 29.112 13.996 28.432 13.996H24.76C24.016 13.996 23.644 13.644 23.644 12.94V8.536H28.408V10.564C28.392 11.244 28.068 11.596 27.436 11.62C27.076 11.62 26.56 11.604 25.888 11.572L25.72 10.972C26.424 11.004 26.924 11.02 27.22 11.02C27.572 11.02 27.748 10.816 27.748 10.408V9.124Z" fill="white"/>
</svg>
