<svg width="38" height="18" viewBox="0 0 38 18" fill="none" xmlns="http://www.w3.org/2000/svg">
<path fill-rule="evenodd" clip-rule="evenodd" d="M0 0H38V18H0V0Z" fill="#ED7B2F"/>
<path d="M7.888 3.76H9.4V3.172H9.964V3.76H11.428V3.172H11.992V3.76H13.48V4.264H11.992V4.888H11.428V4.264H9.964V4.888H9.4V4.264H7.888V3.76ZM8.944 6.22H11.428V7.732H11.764C12.068 7.708 12.26 7.576 12.34 7.336C12.412 7.096 12.46 6.548 12.484 5.692H9.04C8.784 6.228 8.428 6.68 7.972 7.048L7.624 6.628C8.208 6.156 8.608 5.508 8.824 4.684L9.376 4.78L9.232 5.224H13.084C13.084 6.576 12.996 7.408 12.82 7.72C12.764 7.8 12.704 7.872 12.64 7.936L13.06 7.876C13.212 8.132 13.344 8.404 13.456 8.692H18.16V9.184H7.852V8.692H12.832C12.68 8.388 12.564 8.172 12.484 8.044C12.308 8.124 12.116 8.168 11.908 8.176H11.392L11.284 7.804H8.944V6.22ZM10.924 7.42V6.616H9.46V7.42H10.924ZM14.824 4.54L14.668 4.852C14.836 5.452 15.188 5.972 15.724 6.412C16.228 5.908 16.564 5.284 16.732 4.54H14.824ZM14.332 5.416C14.076 5.768 13.804 6.076 13.516 6.34L13.156 5.884C13.9 5.188 14.404 4.264 14.668 3.112L15.268 3.208C15.172 3.56 15.096 3.82 15.04 3.988H18.004V4.54H17.308C17.116 5.444 16.744 6.184 16.192 6.76C16.768 7.128 17.464 7.436 18.28 7.684L17.98 8.2C17.108 7.92 16.372 7.568 15.772 7.144C15.172 7.6 14.452 7.936 13.612 8.152L13.36 7.612C14.144 7.428 14.792 7.148 15.304 6.772C14.848 6.364 14.524 5.912 14.332 5.416ZM9.316 9.868H16.792V10.3H9.316V9.868ZM9.316 10.948H16.792V11.38H9.316V10.948ZM17.14 12.052V14.26H16.504V13.876H9.64V14.26H9.004V12.052H17.14ZM9.64 13.408H16.504V12.52H9.64V13.408ZM28.84 9.88V14.164H28.18V13.468H21.892V14.164H21.232V9.88H28.84ZM21.892 12.856H28.18V10.504H21.892V12.856ZM21.7 5.62C21.276 6.204 20.804 6.716 20.284 7.156L19.864 6.616C20.992 5.68 21.748 4.54 22.132 3.196L22.804 3.268C22.644 3.844 22.412 4.412 22.108 4.972H24.772V3.232H25.42V4.972H29.56V5.62H25.42V7.792H30.4V8.44H19.6V7.792H24.772V5.62H21.7Z" fill="white"/>
</svg>
