<svg width="38" height="18" viewBox="0 0 38 18" fill="none" xmlns="http://www.w3.org/2000/svg">
<path fill-rule="evenodd" clip-rule="evenodd" d="M0 0H38V18H0V0Z" fill="#FFBB00"/>
<path d="M12.076 8.332V12.952C12.58 12.752 12.988 12.576 13.3 12.424L13.408 13C12.792 13.256 12.092 13.516 11.308 13.78L11.14 13.216C11.34 13.144 11.44 13.016 11.44 12.832V4.768C14 4.384 15.96 3.952 17.32 3.472L17.68 4C17.096 4.208 16.384 4.412 15.544 4.612C15.552 5.796 15.588 6.832 15.652 7.72H18.304V8.332H15.7C15.74 8.86 15.808 9.36 15.904 9.832C16.088 10.888 16.344 11.728 16.672 12.352C16.952 12.88 17.176 13.144 17.344 13.144C17.544 13.128 17.72 12.428 17.872 11.044L18.412 11.344C18.196 13.048 17.88 13.9 17.464 13.9C17.112 13.9 16.736 13.58 16.336 12.94C15.92 12.252 15.58 11.288 15.316 10.048C15.212 9.504 15.132 8.932 15.076 8.332H12.076ZM14.908 4.756C13.844 4.964 12.9 5.136 12.076 5.272V7.72H15.028C14.948 6.736 14.908 5.748 14.908 4.756ZM14.092 11.572C14.764 12.372 15.296 13.1 15.688 13.756L15.196 14.104C14.772 13.392 14.252 12.656 13.636 11.896L14.092 11.572ZM10.912 3.508C10.616 4.388 10.228 5.26 9.748 6.124V14.2H9.1V7.144C8.668 7.768 8.18 8.364 7.636 8.932L7.432 8.26C8.768 6.764 9.728 5.088 10.312 3.232L10.912 3.508ZM23.884 3.184C23.62 3.624 23.396 3.968 23.212 4.216H27.964V4.696C27.436 5.328 26.896 5.872 26.344 6.328H30.124V6.976H21.904V9.028C21.848 11.188 21.224 12.916 20.032 14.212L19.516 13.756C20.62 12.628 21.196 11.052 21.244 9.028V6.328H25.468C26.076 5.848 26.632 5.332 27.136 4.78H22.768C21.968 5.74 21.036 6.568 19.972 7.264L19.54 6.736C21.092 5.76 22.32 4.524 23.224 3.028L23.884 3.184ZM27.748 9.124H24.304V12.748C24.304 13.172 24.528 13.384 24.976 13.384H28.288C28.888 13.384 29.268 13.272 29.428 13.048C29.58 12.768 29.692 12.272 29.764 11.56L30.376 11.764C30.28 12.796 30.096 13.436 29.824 13.684C29.576 13.892 29.112 13.996 28.432 13.996H24.76C24.016 13.996 23.644 13.644 23.644 12.94V8.536H28.408V10.564C28.392 11.244 28.068 11.596 27.436 11.62C27.076 11.62 26.56 11.604 25.888 11.572L25.72 10.972C26.424 11.004 26.924 11.02 27.22 11.02C27.572 11.02 27.748 10.816 27.748 10.408V9.124Z" fill="white"/>
</svg>
