<svg width="38" height="18" viewBox="0 0 38 18" fill="none" xmlns="http://www.w3.org/2000/svg">
<path fill-rule="evenodd" clip-rule="evenodd" d="M0 0H38V18H0V0Z" fill="#ED7B2F"/>
<path d="M8.152 6.068V11.78H9.052V6.956H16.888V11.72H17.824V6.068H8.152ZM8.632 10.148V11.024H17.428V10.148H8.632ZM12.496 3.92V14.948H13.432V3.92H12.496ZM22.576 4.736V5.516H26.548V4.736H22.576ZM22.744 3.896C22.18 5.18 21.064 6.74 19.42 7.88C19.636 8.012 19.948 8.324 20.092 8.54C21.832 7.256 23.008 5.588 23.752 4.064L22.744 3.896ZM21.46 6.788V7.604H30.28V6.788H21.46ZM23.608 8.756V9.548H28.084V8.756H23.608ZM23.152 8.756V13.388C23.152 14.576 23.632 14.864 25.156 14.864C25.504 14.864 28.24 14.864 28.6 14.864C30.016 14.864 30.328 14.372 30.484 12.584C30.232 12.536 29.86 12.392 29.644 12.236C29.56 13.76 29.416 14.036 28.564 14.036C27.976 14.036 25.636 14.036 25.168 14.036C24.22 14.036 24.04 13.916 24.04 13.388V8.756H23.152ZM27.808 8.756V8.888C27.7 10.652 27.592 11.324 27.424 11.516C27.328 11.612 27.22 11.624 27.016 11.624C26.824 11.624 26.272 11.612 25.696 11.564C25.84 11.78 25.924 12.116 25.948 12.356C26.536 12.392 27.124 12.392 27.412 12.368C27.748 12.344 27.964 12.272 28.156 12.056C28.432 11.768 28.552 11.012 28.66 9.116C28.672 8.996 28.684 8.756 28.684 8.756H27.808ZM21.016 6.788V9.116C21.016 10.712 20.836 12.86 19.384 14.42C19.576 14.528 19.936 14.84 20.08 15.02C21.616 13.364 21.904 10.88 21.904 9.128V6.788H21.016ZM26.224 4.736V4.916C25.996 5.528 25.492 6.476 25.036 7.04C25.252 7.16 25.552 7.34 25.744 7.484C26.248 6.86 26.86 5.9 27.256 5.108L26.596 4.688L26.44 4.736H26.224Z" fill="white"/>
</svg>
