<svg width="44" height="20" viewBox="0 0 44 20" fill="none" xmlns="http://www.w3.org/2000/svg">
<rect width="44" height="20" rx="3" fill="#0052D9"/>
<path d="M6.86 6.86H7.58L10.44 14H9.77L8.94 11.87H5.5L4.67 14H4L6.86 6.86ZM5.7 11.35H8.74L7.24 7.52H7.21L5.7 11.35ZM13.3455 8.69C14.6255 8.69 15.2655 9.4 15.2655 10.82V14H14.6655V10.86C14.6655 9.76 14.1755 9.21 13.1955 9.21C12.7822 9.21 12.4355 9.36 12.1555 9.66C11.8622 9.95333 11.6989 10.36 11.6655 10.88V14H11.0655V8.83H11.6655V9.68C11.8455 9.37333 12.0789 9.13 12.3655 8.95C12.6455 8.77667 12.9722 8.69 13.3455 8.69ZM20.4245 6.72H21.0245V14H20.4545V12.98C20.0945 13.7533 19.4912 14.14 18.6445 14.14C17.9045 14.14 17.3212 13.8667 16.8945 13.32C16.5145 12.82 16.3245 12.1833 16.3245 11.41C16.3245 10.65 16.5145 10.02 16.8945 9.52C17.3079 8.96667 17.8812 8.69 18.6145 8.69C19.4412 8.69 20.0445 9.1 20.4245 9.92V6.72ZM18.7245 9.2C18.1379 9.2 17.6845 9.42 17.3645 9.86C17.0779 10.2333 16.9345 10.75 16.9345 11.41C16.9345 12.0567 17.0745 12.5767 17.3545 12.97C17.6679 13.41 18.1179 13.63 18.7045 13.63C19.2645 13.63 19.7012 13.4167 20.0145 12.99C20.3012 12.59 20.4445 12.09 20.4445 11.49V11.37C20.4445 10.7433 20.2912 10.2267 19.9845 9.82C19.6712 9.40667 19.2512 9.2 18.7245 9.2ZM24.4563 8.69C24.7763 8.69 25.0263 8.72667 25.2063 8.8V9.41C24.9596 9.33667 24.6963 9.3 24.4163 9.3C23.9429 9.3 23.5696 9.50667 23.2963 9.92C23.0229 10.2933 22.8863 10.7433 22.8863 11.27V14H22.2863V8.83H22.8863V9.82C23.0263 9.49333 23.2163 9.23667 23.4563 9.05C23.7363 8.81 24.0696 8.69 24.4563 8.69ZM28.1498 8.69C28.9098 8.69 29.5198 8.96333 29.9798 9.51C30.3998 10.0167 30.6098 10.6533 30.6098 11.42C30.6098 12.1733 30.3998 12.8067 29.9798 13.32C29.5131 13.8667 28.9031 14.14 28.1498 14.14C27.3964 14.14 26.7864 13.8667 26.3198 13.32C25.8998 12.8067 25.6898 12.1733 25.6898 11.42C25.6898 10.6533 25.9031 10.0167 26.3298 9.51C26.7764 8.96333 27.3831 8.69 28.1498 8.69ZM28.1498 9.21C27.5564 9.21 27.0931 9.43667 26.7598 9.89C26.4531 10.2833 26.2998 10.7933 26.2998 11.42C26.2998 12.04 26.4531 12.5467 26.7598 12.94C27.0998 13.3933 27.5631 13.62 28.1498 13.62C28.7431 13.62 29.2098 13.3933 29.5498 12.94C29.8564 12.52 30.0098 12.0133 30.0098 11.42C30.0098 10.8067 29.8564 10.2967 29.5498 9.89C29.2164 9.43667 28.7498 9.21 28.1498 9.21ZM32.271 6.97C32.411 6.97 32.531 7.02 32.631 7.12C32.731 7.2 32.781 7.31667 32.781 7.47C32.781 7.60333 32.7277 7.72333 32.621 7.83C32.5143 7.92333 32.3977 7.97 32.271 7.97C32.1243 7.97 32.0043 7.92333 31.911 7.83C31.811 7.73 31.761 7.61 31.761 7.47C31.761 7.31667 31.811 7.2 31.911 7.12C32.0043 7.02 32.1243 6.97 32.271 6.97ZM31.971 8.83H32.571V14H31.971V8.83ZM38.032 6.72H38.632V14H38.062V12.98C37.702 13.7533 37.0986 14.14 36.252 14.14C35.512 14.14 34.9286 13.8667 34.502 13.32C34.122 12.82 33.932 12.1833 33.932 11.41C33.932 10.65 34.122 10.02 34.502 9.52C34.9153 8.96667 35.4886 8.69 36.222 8.69C37.0486 8.69 37.652 9.1 38.032 9.92V6.72ZM36.332 9.2C35.7453 9.2 35.292 9.42 34.972 9.86C34.6853 10.2333 34.542 10.75 34.542 11.41C34.542 12.0567 34.682 12.5767 34.962 12.97C35.2753 13.41 35.7253 13.63 36.312 13.63C36.872 13.63 37.3086 13.4167 37.622 12.99C37.9086 12.59 38.052 12.09 38.052 11.49V11.37C38.052 10.7433 37.8986 10.2267 37.592 9.82C37.2786 9.40667 36.8586 9.2 36.332 9.2Z" fill="white" fill-opacity="0.9"/>
</svg>
