<svg width="33" height="20" viewBox="0 0 33 20" fill="none" xmlns="http://www.w3.org/2000/svg">
<rect width="33" height="20" rx="3" fill="#0052D9"/>
<path d="M4.73 6.86H5.34V13.46H9.63V14H4.73V6.86ZM11.0894 6.97C11.2294 6.97 11.3494 7.02 11.4494 7.12C11.5494 7.2 11.5994 7.31667 11.5994 7.47C11.5994 7.60333 11.546 7.72333 11.4394 7.83C11.3327 7.92333 11.216 7.97 11.0894 7.97C10.9427 7.97 10.8227 7.92333 10.7294 7.83C10.6294 7.73 10.5794 7.61 10.5794 7.47C10.5794 7.31667 10.6294 7.2 10.7294 7.12C10.8227 7.02 10.9427 6.97 11.0894 6.97ZM10.7894 8.83H11.3894V14H10.7894V8.83ZM15.2303 8.69C16.5103 8.69 17.1503 9.4 17.1503 10.82V14H16.5503V10.86C16.5503 9.76 16.0603 9.21 15.0803 9.21C14.667 9.21 14.3203 9.36 14.0403 9.66C13.747 9.95333 13.5836 10.36 13.5503 10.88V14H12.9503V8.83H13.5503V9.68C13.7303 9.37333 13.9636 9.13 14.2503 8.95C14.5303 8.77667 14.857 8.69 15.2303 8.69ZM18.4093 8.83H19.0093V11.99C19.0093 12.53 19.1226 12.9333 19.3493 13.2C19.5893 13.48 19.9593 13.62 20.4593 13.62C20.8526 13.62 21.2026 13.4667 21.5093 13.16C21.8093 12.86 21.9793 12.4633 22.0193 11.97V8.83H22.6193V14H22.0193V13.13C21.6193 13.8033 21.046 14.14 20.2993 14.14C19.0393 14.14 18.4093 13.4333 18.4093 12.02V8.83ZM23.518 8.83H24.238L25.718 10.82L27.198 8.83H27.908L26.058 11.27L28.128 14H27.408L25.718 11.72L24.018 14H23.298L25.378 11.27L23.518 8.83Z" fill="white" fill-opacity="0.9"/>
</svg>
