<svg width="29" height="20" viewBox="0 0 29 20" fill="none" xmlns="http://www.w3.org/2000/svg">
<rect width="29" height="20" rx="3" fill="#0052D9"/>
<path d="M7.82 6.72C8.86667 6.72 9.7 7.08 10.32 7.8C10.9 8.48 11.19 9.35667 11.19 10.43C11.19 11.51 10.9 12.39 10.32 13.07L10.22 13.19C10.4667 13.5167 10.7467 13.9033 11.06 14.35L10.64 14.71C10.2933 14.2033 10.0167 13.8167 9.81 13.55C9.25667 13.9433 8.59 14.14 7.81 14.14C6.75 14.14 5.91333 13.78 5.3 13.06C4.72 12.38 4.43 11.5033 4.43 10.43C4.43 9.35667 4.72 8.48 5.3 7.8C5.92 7.08 6.76 6.72 7.82 6.72ZM7.82 7.28C6.94667 7.28 6.26 7.58 5.76 8.18C5.28 8.76 5.04 9.51 5.04 10.43C5.04 11.37 5.27667 12.12 5.75 12.68C6.25 13.28 6.93667 13.58 7.81 13.58C8.45667 13.58 9.00333 13.4133 9.45 13.08C9.03667 12.5533 8.60667 12.05 8.16 11.57L8.54 11.2C9.02 11.7133 9.45667 12.2167 9.85 12.71C9.85 12.6967 9.85333 12.69 9.86 12.69C10.34 12.1167 10.58 11.3633 10.58 10.43C10.58 9.48333 10.34 8.73 9.86 8.17C9.36667 7.57667 8.68667 7.28 7.82 7.28ZM12.3472 6.86H13.0372L17.3572 13.05H17.3872V6.86H18.0072V14H17.3272L12.9872 7.76H12.9572V14H12.3472V6.86ZM18.9963 6.86H19.7563L21.8363 9.79L23.9263 6.86H24.6863L22.2063 10.29L24.8963 14H24.1263L21.8363 10.77L19.5463 14H18.7863L21.4663 10.29L18.9963 6.86Z" fill="white" fill-opacity="0.9"/>
</svg>
