<svg width="33" height="20" viewBox="0 0 33 20" fill="none" xmlns="http://www.w3.org/2000/svg">
<rect width="33" height="20" rx="3" fill="#0052D9"/>
<path d="M6.86 6.86H7.58L10.44 14H9.77L8.94 11.87H5.5L4.67 14H4L6.86 6.86ZM5.7 11.35H8.74L7.24 7.52H7.21L5.7 11.35ZM11.2555 6.72H11.8555V14H11.2555V6.72ZM13.9019 6.97C14.0419 6.97 14.1619 7.02 14.2619 7.12C14.3619 7.2 14.4119 7.31667 14.4119 7.47C14.4119 7.60333 14.3585 7.72333 14.2519 7.83C14.1452 7.92333 14.0285 7.97 13.9019 7.97C13.7552 7.97 13.6352 7.92333 13.5419 7.83C13.4419 7.73 13.3919 7.61 13.3919 7.47C13.3919 7.31667 13.4419 7.2 13.5419 7.12C13.6352 7.02 13.7552 6.97 13.9019 6.97ZM13.6019 8.83H14.2019V14H13.6019V8.83ZM18.9528 6.72C19.9995 6.72 20.8328 7.08 21.4528 7.8C22.0328 8.48 22.3228 9.35667 22.3228 10.43C22.3228 11.51 22.0328 12.39 21.4528 13.07C20.8328 13.7833 19.9961 14.14 18.9428 14.14C17.8828 14.14 17.0461 13.78 16.4328 13.06C15.8528 12.38 15.5628 11.5033 15.5628 10.43C15.5628 9.35667 15.8528 8.48 16.4328 7.8C17.0528 7.08 17.8928 6.72 18.9528 6.72ZM18.9528 7.28C18.0795 7.28 17.3928 7.58 16.8928 8.18C16.4128 8.76 16.1728 9.51 16.1728 10.43C16.1728 11.37 16.4095 12.12 16.8828 12.68C17.3828 13.28 18.0695 13.58 18.9428 13.58C19.8095 13.58 20.4928 13.2833 20.9928 12.69C21.4728 12.1167 21.7128 11.3633 21.7128 10.43C21.7128 9.48333 21.4728 8.73 20.9928 8.17C20.4995 7.57667 19.8195 7.28 18.9528 7.28ZM25.81 6.72C26.59 6.72 27.21 6.91 27.67 7.29C28.1433 7.67 28.41 8.23 28.47 8.97H27.86C27.78 8.41667 27.57 7.99333 27.23 7.7C26.8967 7.41333 26.4167 7.27 25.79 7.27C25.2167 7.27 24.7633 7.37 24.43 7.57C24.0567 7.78333 23.87 8.12 23.87 8.58C23.87 8.97333 24.0933 9.29 24.54 9.53C24.78 9.64333 25.2367 9.79667 25.91 9.99C26.8367 10.2567 27.45 10.4833 27.75 10.67C28.3433 11.0233 28.64 11.5233 28.64 12.17C28.64 12.7833 28.3833 13.27 27.87 13.63C27.3833 13.97 26.7333 14.14 25.92 14.14C25.1 14.14 24.4533 13.9533 23.98 13.58C23.44 13.1533 23.14 12.5067 23.08 11.64H23.68C23.7533 12.3133 23.9867 12.8133 24.38 13.14C24.7467 13.4333 25.2567 13.58 25.91 13.58C26.53 13.58 27.04 13.4567 27.44 13.21C27.8267 12.9567 28.02 12.62 28.02 12.2C28.02 11.7133 27.7767 11.3333 27.29 11.06C27.0233 10.9067 26.5 10.7233 25.72 10.51C24.8667 10.27 24.32 10.08 24.08 9.94C23.5333 9.63333 23.26 9.18667 23.26 8.6C23.26 7.98 23.5167 7.50667 24.03 7.18C24.4833 6.87333 25.0767 6.72 25.81 6.72Z" fill="white" fill-opacity="0.9"/>
</svg>
