<svg width="35" height="20" viewBox="0 0 35 20" fill="none" xmlns="http://www.w3.org/2000/svg">
<rect width="35" height="20" rx="3" fill="#0052D9"/>
<path d="M4.73 6.86H7.75C8.46333 6.86 9.01667 7.02667 9.41 7.36C9.81667 7.70667 10.02 8.19333 10.02 8.82C10.02 9.22667 9.90667 9.59 9.68 9.91C9.44 10.23 9.10333 10.44 8.67 10.54V10.56C9.39 10.72 9.79 11.16 9.87 11.88L9.97 12.95C10.01 13.3967 10.1267 13.7467 10.32 14H9.65C9.50333 13.7667 9.41 13.4433 9.37 13.03L9.28 12.05C9.24 11.61 9.07667 11.2933 8.79 11.1C8.53 10.92 8.16667 10.83 7.7 10.83H5.34V14H4.73V6.86ZM5.34 7.4V10.29H7.69C8.24333 10.29 8.67667 10.1533 8.99 9.88C9.27 9.62 9.41 9.27333 9.41 8.84C9.41 8.36667 9.27333 8.01 9 7.77C8.72667 7.52333 8.28667 7.4 7.68 7.4H5.34ZM10.8304 6.86H16.6804V7.4H14.0604V14H13.4504V7.4H10.8304V6.86ZM20.6813 6.72C21.728 6.72 22.5613 7.08 23.1813 7.8C23.7613 8.48 24.0513 9.35667 24.0513 10.43C24.0513 11.51 23.7613 12.39 23.1813 13.07C22.5613 13.7833 21.7247 14.14 20.6713 14.14C19.6113 14.14 18.7747 13.78 18.1613 13.06C17.5813 12.38 17.2913 11.5033 17.2913 10.43C17.2913 9.35667 17.5813 8.48 18.1613 7.8C18.7813 7.08 19.6213 6.72 20.6813 6.72ZM20.6813 7.28C19.808 7.28 19.1213 7.58 18.6213 8.18C18.1413 8.76 17.9013 9.51 17.9013 10.43C17.9013 11.37 18.138 12.12 18.6113 12.68C19.1113 13.28 19.798 13.58 20.6713 13.58C21.538 13.58 22.2213 13.2833 22.7213 12.69C23.2013 12.1167 23.4413 11.3633 23.4413 10.43C23.4413 9.48333 23.2013 8.73 22.7213 8.17C22.228 7.57667 21.548 7.28 20.6813 7.28ZM27.5385 6.72C28.3185 6.72 28.9385 6.91 29.3985 7.29C29.8718 7.67 30.1385 8.23 30.1985 8.97H29.5885C29.5085 8.41667 29.2985 7.99333 28.9585 7.7C28.6252 7.41333 28.1452 7.27 27.5185 7.27C26.9452 7.27 26.4918 7.37 26.1585 7.57C25.7852 7.78333 25.5985 8.12 25.5985 8.58C25.5985 8.97333 25.8218 9.29 26.2685 9.53C26.5085 9.64333 26.9652 9.79667 27.6385 9.99C28.5652 10.2567 29.1785 10.4833 29.4785 10.67C30.0718 11.0233 30.3685 11.5233 30.3685 12.17C30.3685 12.7833 30.1118 13.27 29.5985 13.63C29.1118 13.97 28.4618 14.14 27.6485 14.14C26.8285 14.14 26.1818 13.9533 25.7085 13.58C25.1685 13.1533 24.8685 12.5067 24.8085 11.64H25.4085C25.4818 12.3133 25.7152 12.8133 26.1085 13.14C26.4752 13.4333 26.9852 13.58 27.6385 13.58C28.2585 13.58 28.7685 13.4567 29.1685 13.21C29.5552 12.9567 29.7485 12.62 29.7485 12.2C29.7485 11.7133 29.5052 11.3333 29.0185 11.06C28.7518 10.9067 28.2285 10.7233 27.4485 10.51C26.5952 10.27 26.0485 10.08 25.8085 9.94C25.2618 9.63333 24.9885 9.18667 24.9885 8.6C24.9885 7.98 25.2452 7.50667 25.7585 7.18C26.2118 6.87333 26.8052 6.72 27.5385 6.72Z" fill="white" fill-opacity="0.9"/>
</svg>
