<svg width="18" height="18" viewBox="0 0 18 18" fill="none" xmlns="http://www.w3.org/2000/svg">
<rect width="18" height="18" rx="9" fill="#0E9D61"/>
<path d="M7.23229 12.8889L9.35361 10.7676L10.0607 11.4747L7.9394 13.596C6.96309 14.5723 5.38017 14.5723 4.40386 13.596C3.42755 12.6197 3.42755 11.0368 4.40386 10.0605L6.52518 7.93915L7.23229 8.64626L5.11097 10.7676C4.52518 11.3534 4.52518 12.3031 5.11097 12.8889C5.69676 13.4747 6.6465 13.4747 7.23229 12.8889Z" fill="white"/>
<path d="M11.4749 10.0605L10.7678 9.35337L12.8891 7.23205C13.4749 6.64626 13.4749 5.69651 12.8891 5.11073C12.3034 4.52494 11.3536 4.52494 10.7678 5.11073L8.6465 7.23205L7.9394 6.52494L10.0607 4.40362C11.037 3.42731 12.6199 3.42731 13.5963 4.40362C14.5726 5.37993 14.5726 6.96284 13.5963 7.93915L11.4749 10.0605Z" fill="white"/>
<path d="M10.0609 7.23207L7.23244 10.0605L7.93955 10.7676L10.768 7.93917L10.0609 7.23207Z" fill="white"/>
</svg>
