<svg width="18" height="18" viewBox="0 0 18 18" fill="none" xmlns="http://www.w3.org/2000/svg">
<rect width="18" height="18" rx="9" fill="#E34D59"/>
<path d="M7 3L7 5L8 5V3H7Z" fill="white"/>
<path d="M9.1767 10.591L6.8786 12.8891C6.39045 13.3773 5.59899 13.3773 5.11084 12.8891C4.62268 12.401 4.62268 11.6095 5.11084 11.1214L7.40893 8.82327L6.70183 8.11617L4.40373 10.4143C3.52505 11.2929 3.52505 12.7176 4.40373 13.5962C5.28241 14.4749 6.70703 14.4749 7.58571 13.5962L9.88381 11.2981L9.1767 10.591Z" fill="white"/>
<path d="M10.5909 9.17683L11.298 9.88393L13.5961 7.58584C14.4748 6.70716 14.4748 5.28254 13.5961 4.40386C12.7174 3.52518 11.2928 3.52518 10.4141 4.40386L8.11604 6.70195L8.82315 7.40906L11.1212 5.11096C11.6094 4.62281 12.4009 4.62281 12.889 5.11096C13.3772 5.59912 13.3772 6.39058 12.889 6.87873L10.5909 9.17683Z" fill="white"/>
<path d="M13 9.99994H15V10.9999H13V9.99994Z" fill="white"/>
<path d="M3 8H5V7H3V8Z" fill="white"/>
<path d="M11 12.9999V14.9999H10L10 12.9999H11Z" fill="white"/>
<path d="M12.7322 12.0251L14.3536 13.6464L13.6464 14.3535L12.0251 12.7322L12.7322 12.0251Z" fill="white"/>
<path d="M3.64645 4.35349L5.26777 5.97481L5.97487 5.26771L4.35355 3.64639L3.64645 4.35349Z" fill="white"/>
</svg>
