<?xml version="1.0" encoding="UTF-8"?>
<svg width="16px" height="16px" viewBox="0 0 16 16" version="1.1" xmlns="http://www.w3.org/2000/svg" xmlns:xlink="http://www.w3.org/1999/xlink">
    <!-- Generator: Sketch 55.2 (78181) - https://sketchapp.com -->
    <title>set</title>
    <desc>Created with Sketch.</desc>
    <g id="set" stroke="none" stroke-width="1" fill="none" fill-rule="evenodd">
        <g id="编组">
            <rect id="矩形" fill="#D8D8D8" opacity="0" x="0" y="0" width="16" height="16"></rect>
            <path d="M16,8 L11.999,15 L3.999,15 L0,8 L3.999,1 L11.999,1 L16,8 Z M5.16,3 L2.304,8 L5.16,12.999 L10.839,12.999 L13.696,8 L10.839,3 L5.16,3 Z M8,10.5 C6.61928813,10.5 5.5,9.38071187 5.5,8 C5.5,6.61928813 6.61928813,5.5 8,5.5 C9.38071187,5.5 10.5,6.61928813 10.5,8 C10.5,9.38071187 9.38071187,10.5 8,10.5 Z" id="形状结合" fill="#888888"></path>
        </g>
    </g>
</svg>
