<?xml version="1.0" encoding="UTF-8"?>
<svg width="16px" height="16px" viewBox="0 0 16 16" version="1.1" xmlns="http://www.w3.org/2000/svg" xmlns:xlink="http://www.w3.org/1999/xlink">
    <!-- Generator: Sketch 52.5 (67469) - http://www.bohemiancoding.com/sketch -->
    <title>用户组</title>
    <desc>Created with Sketch.</desc>
    <g id="用户组" stroke="none" stroke-width="1" fill="none" fill-rule="evenodd">
        <g id="Group" transform="translate(0.000000, 1.000000)" fill="#888888" fill-rule="nonzero">
            <path d="M0,8.97435897 C0,7.30297436 3.33142857,6.46153846 5,6.46153846 C6.66857143,6.46153846 10,7.30297436 10,8.97435897 L10,10.7692308 L0,10.7692308 L0,8.97435897 Z M8.57142857,9.02246154 C8.30142857,8.58810256 6.52428571,7.8974359 5,7.8974359 C3.47571429,7.8974359 1.69857143,8.58810256 1.42857143,9.02246154 L1.42857143,9.33333333 L8.57142857,9.33333333 L8.57142857,9.02246154 Z M5,5.74358974 C3.42142857,5.74358974 2.14285714,4.45846154 2.14285714,2.87179487 C2.14285714,1.28512821 3.42142857,0 5,0 C6.57857143,0 7.85714286,1.28512821 7.85714286,2.87179487 C7.85714286,4.45846154 6.57857143,5.74358974 5,5.74358974 Z M5,4.30769231 C5.78959321,4.30769231 6.42857143,3.66543728 6.42857143,2.87179487 C6.42857143,2.07815246 5.78959321,1.43589744 5,1.43589744 C4.21040679,1.43589744 3.57142857,2.07815246 3.57142857,2.87179487 C3.57142857,3.66543728 4.21040679,4.30769231 5,4.30769231 Z" id="Combined-Shape"></path>
            <path d="M6,12.2051282 C6,10.5337436 9.33142857,9.69230769 11,9.69230769 C12.6685714,9.69230769 16,10.5337436 16,12.2051282 L16,14 L6,14 L6,12.2051282 Z M14.5714286,12.2532308 C14.3014286,11.8188718 12.5242857,11.1282051 11,11.1282051 C9.47571429,11.1282051 7.69857143,11.8188718 7.42857143,12.2532308 L7.42857143,12.5641026 L14.5714286,12.5641026 L14.5714286,12.2532308 Z M11,8.97435897 C9.42142857,8.97435897 8.14285714,7.68923077 8.14285714,6.1025641 C8.14285714,4.51589744 9.42142857,3.23076923 11,3.23076923 C12.5785714,3.23076923 13.8571429,4.51589744 13.8571429,6.1025641 C13.8571429,7.68923077 12.5785714,8.97435897 11,8.97435897 Z M11,7.53846154 C11.7895932,7.53846154 12.4285714,6.89620651 12.4285714,6.1025641 C12.4285714,5.30892169 11.7895932,4.66666667 11,4.66666667 C10.2104068,4.66666667 9.57142857,5.30892169 9.57142857,6.1025641 C9.57142857,6.89620651 10.2104068,7.53846154 11,7.53846154 Z" id="Combined-Shape"></path>
        </g>
    </g>
</svg>