<svg width="32" height="32" viewBox="0 0 32 32" fill="none" xmlns="http://www.w3.org/2000/svg">
<path fill-rule="evenodd" clip-rule="evenodd" d="M21.6 4.7998L10.4 6.74763V25.252L21.6 27.1998V4.7998Z" fill="#FA5555" fill-opacity="0.3"/>
<path fill-rule="evenodd" clip-rule="evenodd" d="M9.44311 4.52745L22.2431 1.96745C22.7381 1.86844 23.2 2.24707 23.2 2.75191V29.2485C23.2 29.7534 22.7381 30.132 22.2431 30.033L9.44311 27.473C9.06917 27.3982 8.8 27.0699 8.8 26.6885V5.31191C8.8 4.93057 9.06917 4.60223 9.44311 4.52745ZM22.0862 1.18298C23.0763 0.984968 24 1.74224 24 2.75191V29.2485C24 30.2582 23.0763 31.0155 22.0862 30.8175L9.28621 28.2575C8.53834 28.1079 8 27.4512 8 26.6885V5.31191C8 4.54922 8.53834 3.89256 9.28621 3.74298L22.0862 1.18298ZM21.6 4.80024V27.2002L10.4 25.2524V6.74807L21.6 4.80024ZM20.8 5.75138V26.2491L11.2 24.5795V7.42095L20.8 5.75138ZM15.2 8.80024H16V9.80024V14.2002V15.2002H15.2V14.2002V9.80024V8.80024ZM18.4 10.4003C17.9581 10.4003 17.6 10.0421 17.6 9.60029C17.6 9.15847 17.9581 8.80029 18.4 8.80029C18.8418 8.80029 19.2 9.15847 19.2 9.60029C19.2 10.0421 18.8418 10.4003 18.4 10.4003ZM18.4 13.6002C17.9582 13.6002 17.6 13.2421 17.6 12.8002C17.6 12.3584 17.9582 12.0002 18.4 12.0002C18.8418 12.0002 19.2 12.3584 19.2 12.8002C19.2 13.2421 18.8418 13.6002 18.4 13.6002ZM12.8 10.2002C12.9105 10.2002 13 10.2898 13 10.4002C13 10.5107 12.9105 10.6002 12.8 10.6002C12.6895 10.6002 12.6 10.5107 12.6 10.4002C12.6 10.2898 12.6895 10.2002 12.8 10.2002ZM12.8 11.2002C12.3582 11.2002 12 10.8421 12 10.4002C12 9.95842 12.3582 9.60024 12.8 9.60024C13.2418 9.60024 13.6 9.95842 13.6 10.4002C13.6 10.8421 13.2418 11.2002 12.8 11.2002ZM18.4 16.8002C17.9582 16.8002 17.6 16.4421 17.6 16.0002C17.6 15.5584 17.9582 15.2002 18.4 15.2002C18.8418 15.2002 19.2 15.5584 19.2 16.0002C19.2 16.4421 18.8418 16.8002 18.4 16.8002ZM12.8 13.4002C12.9105 13.4002 13 13.4898 13 13.6002C13 13.7107 12.9105 13.8002 12.8 13.8002C12.6895 13.8002 12.6 13.7107 12.6 13.6002C12.6 13.4898 12.6895 13.4002 12.8 13.4002ZM12.8 14.4002C12.3582 14.4002 12 14.0421 12 13.6002C12 13.1584 12.3582 12.8002 12.8 12.8002C13.2418 12.8002 13.6 13.1584 13.6 13.6002C13.6 14.0421 13.2418 14.4002 12.8 14.4002ZM18.4 20.0002C17.9582 20.0002 17.6 19.6421 17.6 19.2002C17.6 18.7584 17.9582 18.4002 18.4 18.4002C18.8418 18.4002 19.2 18.7584 19.2 19.2002C19.2 19.6421 18.8418 20.0002 18.4 20.0002ZM12.8 17.4002C12.9105 17.4002 13 17.4898 13 17.6002C13 17.7107 12.9105 17.8002 12.8 17.8002C12.6895 17.8002 12.6 17.7107 12.6 17.6002C12.6 17.4898 12.6895 17.4002 12.8 17.4002ZM12.8 18.4002C12.3582 18.4002 12 18.0421 12 17.6002C12 17.1584 12.3582 16.8002 12.8 16.8002C13.2418 16.8002 13.6 17.1584 13.6 17.6002C13.6 18.0421 13.2418 18.4002 12.8 18.4002ZM18.4 23.2002C17.9582 23.2002 17.6 22.8421 17.6 22.4002C17.6 21.9584 17.9582 21.6002 18.4 21.6002C18.8418 21.6002 19.2 21.9584 19.2 22.4002C19.2 22.8421 18.8418 23.2002 18.4 23.2002ZM12.8 20.6002C12.9105 20.6002 13 20.6898 13 20.8002C13 20.9107 12.9105 21.0002 12.8 21.0002C12.6895 21.0002 12.6 20.9107 12.6 20.8002C12.6 20.6898 12.6895 20.6002 12.8 20.6002ZM12.8 21.6002C12.3582 21.6002 12 21.2421 12 20.8002C12 20.3584 12.3582 20.0002 12.8 20.0002C13.2418 20.0002 13.6 20.3584 13.6 20.8002C13.6 21.2421 13.2418 21.6002 12.8 21.6002ZM16 16.8002H15.2V17.8002V22.2002V23.2002H16V22.2002V17.8002V16.8002Z" fill="#D63333"/>
</svg>
