<svg width="64" height="64" viewBox="0 0 64 64" fill="none" xmlns="http://www.w3.org/2000/svg">
<path fill-rule="evenodd" clip-rule="evenodd" d="M64 0H16.0422L-1.52588e-05 16.0422V37.9229L-0.00012207 37.9231V61.5538L-1.52588e-05 61.5537V64H47.9578L63.8558 48.102L63.1596 47.4057L47.5499 63.0154H0.9846V60.3229L3.93834 56.6308V33L0.9846 36.6922V16.4501L16.4501 0.984615H63.0154V3.92308L60 6.93846V8.90769L63.0154 5.89231V7.86155L60 10.8769V12.8462L63.0154 9.83078V11.8L60 14.8154V16.7846L63.0154 13.7692V15.7384L60 18.7538V20.7231L63.0154 17.7077V19.6769L60 22.6923V24.6615L63.0154 21.6462V23.6154L60 26.6308V28.6L63.0154 25.5846V27.5538L60 30.5692V32.5385L63.0154 29.5231V32H64V0Z" fill="#66C947"/>
</svg>
