<svg width="32" height="32" viewBox="0 0 32 32" fill="none" xmlns="http://www.w3.org/2000/svg">
<rect opacity="0.5" x="8.24353" y="20.5215" width="16" height="2.36522" fill="#66C947"/>
<path fill-rule="evenodd" clip-rule="evenodd" d="M9.53046 8.69557V3.58252C9.53046 3.37122 9.35916 3.19992 9.14785 3.19992C8.93654 3.19992 8.76524 3.37122 8.76524 3.58252V8.69557H9.53046ZM9.14785 2.39992C8.49472 2.39992 7.96524 2.92939 7.96524 3.58252V8.90429H7.19995C6.3163 8.90429 5.59995 9.62064 5.59995 10.5043V23.8608C5.59995 24.7445 6.31629 25.4608 7.19995 25.4608H7.96524V28.4174C7.96524 29.0705 8.49472 29.6 9.14785 29.6C9.80099 29.6 10.3305 29.0705 10.3305 28.4174V25.4608H22.1564V28.4174C22.1564 29.0705 22.6859 29.6 23.339 29.6C23.9922 29.6 24.5216 29.0705 24.5216 28.4174V25.4608H25.2869C26.1706 25.4608 26.8869 24.7445 26.8869 23.8608V10.5043C26.8869 9.62064 26.1706 8.90429 25.2869 8.90429H13.8783V3.58252C13.8783 2.92939 13.3488 2.39992 12.6957 2.39992C12.0425 2.39992 11.5131 2.92939 11.5131 3.58252V8.90429H10.3305V3.58252C10.3305 2.92939 9.80099 2.39992 9.14785 2.39992ZM25.2869 9.7043H7.19995C6.75812 9.7043 6.39995 10.0625 6.39995 10.5043V23.8608C6.39995 24.3026 6.75812 24.6608 7.19995 24.6608H25.2869C25.7287 24.6608 26.0869 24.3026 26.0869 23.8608V10.5043C26.0869 10.0625 25.7287 9.7043 25.2869 9.7043ZM16.4092 17.1196C16.7216 17.432 16.7216 17.9385 16.4092 18.2509C16.0968 18.5634 15.5903 18.5634 15.2779 18.2509C14.9654 17.9385 14.9654 17.432 15.2779 17.1196C15.5903 16.8071 16.0968 16.8071 16.4092 17.1196ZM20.6517 13.6768C17.9961 11.0212 13.6906 11.0212 11.0351 13.6768C10.8788 13.833 10.8788 14.0863 11.0351 14.2425C11.1913 14.3987 11.4445 14.3987 11.6007 14.2425C13.9439 11.8993 17.7429 11.8993 20.086 14.2425C20.2422 14.3987 20.4955 14.3987 20.6517 14.2425C20.8079 14.0863 20.8079 13.833 20.6517 13.6768ZM19.5203 14.8082C17.4896 12.7774 14.1972 12.7774 12.1664 14.8082C12.0102 14.9644 12.0102 15.2177 12.1664 15.3739C12.3226 15.5301 12.5759 15.5301 12.7321 15.3739C14.4504 13.6556 17.2363 13.6556 18.9546 15.3739C19.1109 15.5301 19.3641 15.5301 19.5203 15.3739C19.6765 15.2177 19.6765 14.9644 19.5203 14.8082ZM18.389 15.9395C16.9831 14.5337 14.7037 14.5337 13.2978 15.9395C13.1416 16.0958 13.1416 16.349 13.2978 16.5052C13.454 16.6614 13.7073 16.6614 13.8635 16.5052C14.9569 15.4118 16.7298 15.4118 17.8233 16.5052C17.9795 16.6614 18.2328 16.6614 18.389 16.5052C18.5452 16.349 18.5452 16.0958 18.389 15.9395ZM9.53046 28.4174V25.6695H8.76524V28.4174C8.76524 28.6287 8.93654 28.8 9.14785 28.8C9.35916 28.8 9.53046 28.6287 9.53046 28.4174ZM13.0783 8.69557V3.58252C13.0783 3.37122 12.907 3.19992 12.6957 3.19992C12.4844 3.19992 12.3131 3.37122 12.3131 3.58252V8.69557H13.0783ZM23.7216 28.4174V25.6695H22.9564V28.4174C22.9564 28.6287 23.1277 28.8 23.339 28.8C23.5503 28.8 23.7216 28.6287 23.7216 28.4174Z" fill="#399E19"/>
</svg>
