<svg width="40" height="40" viewBox="0 0 40 40" fill="none" xmlns="http://www.w3.org/2000/svg">
<g opacity="0.5">
<path d="M18.7696 15.6111C19.3494 14.6833 20.5671 14.3936 21.5026 14.9609L24.3002 16.6572C25.2537 17.2354 25.5502 18.4817 24.9592 19.4274L22.9618 22.6233C22.3819 23.551 21.1643 23.8407 20.2288 23.2735L17.4312 21.5771C16.4776 20.999 16.1811 19.7526 16.7722 18.807L18.7696 15.6111Z" fill="#66C947"/>
<path d="M11.0582 10.1808C10.6643 9.9534 10.1606 10.0884 9.9332 10.4822L7.87439 14.0482C7.64698 14.4421 7.78193 14.9458 8.17582 15.1732C8.56971 15.4006 9.07337 15.2656 9.30078 14.8717L11.3596 11.3058C11.587 10.9119 11.4521 10.4082 11.0582 10.1808Z" fill="#66C947"/>
<path d="M7.49212 8.12201C7.09824 7.89459 6.59457 8.02955 6.36716 8.42344L4.30835 11.9894C4.08093 12.3833 4.21589 12.887 4.60978 13.1144C5.00366 13.3418 5.50733 13.2068 5.73474 12.8129L7.79356 9.24696C8.02097 8.85308 7.88601 8.34942 7.49212 8.12201Z" fill="#66C947"/>
<path d="M19.0387 32.4688C19.3458 26.4969 16.2676 24.1131 16.2676 24.1131C16.2676 24.1131 17.8926 27.2306 16.8507 28.3348C15.8088 29.4391 12.0359 28.5981 12.0359 28.5981C12.0359 28.5981 15.158 30.1288 19.0387 32.4688Z" fill="#66C947"/>
<path d="M29.1896 21.5999C29.417 21.206 29.9206 21.071 30.3145 21.2984C30.7084 21.5258 30.8434 22.0295 30.616 22.4234L28.5571 25.9894C28.3297 26.3833 27.8261 26.5182 27.4322 26.2908C27.0383 26.0634 26.9033 25.5597 27.1308 25.1658L29.1896 21.5999Z" fill="#66C947"/>
<path d="M33.2943 23.1105C32.9004 22.8831 32.3967 23.018 32.1693 23.4119L30.1105 26.9779C29.8831 27.3718 30.018 27.8754 30.4119 28.1028C30.8058 28.3303 31.3095 28.1953 31.5369 27.8014L33.5957 24.2354C33.8231 23.8415 33.6882 23.3379 33.2943 23.1105Z" fill="#66C947"/>
</g>
<path fill-rule="evenodd" clip-rule="evenodd" d="M23.4689 5.51791C24.0211 4.56133 25.2443 4.23358 26.2009 4.78586L28.799 6.28586C29.7556 6.83815 30.0833 8.06133 29.531 9.01791L27.531 12.482C26.9788 13.4386 25.7556 13.7663 24.799 13.2141L22.2009 11.7141C21.2443 11.1618 20.9166 9.9386 21.4689 8.98201L23.4689 5.51791ZM25.7009 5.65189L28.299 7.15189C28.7773 7.42803 28.9412 8.03962 28.665 8.51791L26.665 11.982C26.3889 12.4603 25.7773 12.6242 25.299 12.348L22.7009 10.848C22.2226 10.5719 22.0587 9.96031 22.3349 9.48201L24.3349 6.01791C24.611 5.53962 25.2226 5.37574 25.7009 5.65189Z" fill="#399E19"/>
<path fill-rule="evenodd" clip-rule="evenodd" d="M17.1699 12.9019L15.8774 15.1405L14.4509 14.317L13.9509 15.183L15.3774 16.0066L14.1699 18.098C13.6176 19.0546 13.9454 20.2778 14.902 20.8301L20.0981 23.8301C21.0547 24.3824 22.2779 24.0546 22.8302 23.098L25.8302 17.9019C26.3824 16.9453 26.0547 15.7221 25.0981 15.1698L19.902 12.1698C18.9454 11.6175 17.7222 11.9453 17.1699 12.9019ZM24.5981 16.0359L19.402 13.0359C18.9237 12.7597 18.3121 12.9236 18.0359 13.4019L16.7434 15.6405L17.049 15.817L16.549 16.683L16.2434 16.5066L15.0359 18.598C14.7598 19.0763 14.9237 19.6879 15.402 19.9641L20.5981 22.9641C21.0764 23.2402 21.688 23.0763 21.9641 22.598L24.9641 17.4019C25.2403 16.9236 25.0764 16.312 24.5981 16.0359Z" fill="#399E19"/>
<path fill-rule="evenodd" clip-rule="evenodd" d="M21.9773 35.281C22.0478 34.927 22.1 34.5719 22.1342 34.2169C22.5078 30.3364 20.73 26.4781 17.25 24.4689C13.7701 22.4597 9.53975 22.8493 6.36596 25.1131C6.07562 25.3202 5.79412 25.543 5.52285 25.781L21.9773 35.281ZM21.1722 33.6615C21.3351 30.3014 19.7274 27.0539 16.75 25.3349C13.7727 23.616 10.1564 23.8473 7.32792 25.6685L21.1722 33.6615Z" fill="#399E19"/>
<path fill-rule="evenodd" clip-rule="evenodd" d="M4.12084 6.0849C4.39698 5.60661 5.00857 5.44273 5.48686 5.71888L15.0131 11.2189C15.4914 11.495 15.6553 12.1066 15.3792 12.5849L12.8792 16.915C12.603 17.3933 11.9914 17.5572 11.5131 17.2811L1.98686 11.7811C1.50857 11.5049 1.34469 10.8933 1.62084 10.415L4.12084 6.0849ZM4.98686 6.5849L14.5131 12.0849L12.0131 16.415L2.48686 10.915L4.98686 6.5849Z" fill="#399E19"/>
<path fill-rule="evenodd" clip-rule="evenodd" d="M25.9199 21.1651L27.1208 19.0849C27.397 18.6066 28.0086 18.4427 28.4869 18.7189L38.0131 24.2189C38.4914 24.495 38.6553 25.1066 38.3792 25.5849L35.8792 29.915C35.603 30.3933 34.9914 30.5572 34.5131 30.2811L24.9869 24.7811C24.5086 24.5049 24.3447 23.8933 24.6208 23.415L25.4199 22.0311L23.9509 21.183L24.4509 20.317L25.9199 21.1651ZM26.7859 21.6651L27.049 21.817L26.549 22.683L26.2859 22.5311L25.4869 23.915L35.0131 29.415L37.5131 25.0849L27.9869 19.5849L26.7859 21.6651Z" fill="#399E19"/>
</svg>
