<svg width="40" height="40" viewBox="0 0 40 40" fill="none" xmlns="http://www.w3.org/2000/svg">
<path opacity="0.5" d="M22.5 5H29V33H19L20.5625 20.5L26.5 20L26 8L22.1693 7.64584L22.5 5Z" fill="#66C947"/>
<path fill-rule="evenodd" clip-rule="evenodd" d="M12 5H28C28.5523 5 29 5.44772 29 6V33H11V6C11 5.44772 11.4477 5 12 5ZM10 33V6C10 4.89543 10.8954 4 12 4H28C29.1046 4 30 4.89543 30 6V33H32C33.1046 33 34 33.8954 34 35C34 36.1046 33.1046 37 32 37H8C6.89543 37 6 36.1046 6 35C6 33.8954 6.89543 33 8 33H10ZM10 34H8C7.44772 34 7 34.4477 7 35C7 35.5523 7.44772 36 8 36H32C32.5523 36 33 35.5523 33 35C33 34.4477 32.5523 34 32 34H30H10ZM21 22L17 27H20L18 32L23 26H20L21 22ZM15 8H25C25.5523 8 26 8.44772 26 9V19C26 19.5523 25.5523 20 25 20H15C14.4477 20 14 19.5523 14 19V9C14 8.44772 14.4477 8 15 8ZM13 9C13 7.89543 13.8954 7 15 7H25C26.1046 7 27 7.89543 27 9V19C27 20.1046 26.1046 21 25 21H15C13.8954 21 13 20.1046 13 19V9Z" fill="#399E19"/>
</svg>
