<svg width="32" height="32" viewBox="0 0 32 32" fill="none" xmlns="http://www.w3.org/2000/svg">
<path fill-rule="evenodd" clip-rule="evenodd" d="M23.6142 1.4348L31.0001 8V12.4758C31.0001 21.6304 24.8455 29.6412 16.0001 32C7.68937 29.7838 1.75404 22.5783 1.06677 14.1226C3.70879 6.48488 10.9639 1 19.5001 1C20.9115 1 22.2879 1.14995 23.6142 1.4348Z" fill="#FA5555"/>
<path fill-rule="evenodd" clip-rule="evenodd" d="M16 32C24.8454 29.6412 31 21.6304 31 12.4758V8L22 0H10L1 8V12.4758C1 21.6304 7.15456 29.6412 16 32ZM2 8.44907V12.4758C2 21.0882 7.7307 28.6355 16 30.9632C24.2693 28.6355 30 21.0882 30 12.4758V8.44907L21.6198 1H10.3802L2 8.44907Z" fill="#D63333"/>
<path fill-rule="evenodd" clip-rule="evenodd" d="M8.84107 17.9022C6.59023 14.0036 7.92598 9.01855 11.8246 6.76771C15.7231 4.51686 20.7082 5.85261 22.9591 9.75119C24.3669 12.1896 24.3711 15.053 23.2245 17.4051C23.1035 17.6533 22.8042 17.7564 22.556 17.6354C22.3077 17.5144 22.2046 17.2151 22.3256 16.9669C23.3328 14.9008 23.3277 12.3897 22.093 10.2512C20.1183 6.83091 15.7448 5.65903 12.3246 7.63373C8.90427 9.60844 7.7324 13.9819 9.7071 17.4022C9.84517 17.6414 9.76323 17.9472 9.52409 18.0852C9.28494 18.2233 8.97914 18.1414 8.84107 17.9022ZM11.4915 16.372C10.0857 13.9372 10.92 10.8238 13.3548 9.4181C15.7896 8.01237 18.9029 8.84659 20.3087 11.2814C21.1495 12.7377 21.1885 14.437 20.5644 15.8668C20.4539 16.1198 20.1592 16.2354 19.9061 16.125C19.653 16.0145 19.5374 15.7198 19.6479 15.4667C20.1504 14.3154 20.118 12.9511 19.4427 11.7814C18.3131 9.82489 15.8113 9.15454 13.8548 10.2841C11.8983 11.4137 11.2279 13.9155 12.3575 15.872C12.4956 16.1112 12.4136 16.417 12.1745 16.555C11.9353 16.6931 11.6295 16.6112 11.4915 16.372ZM18 13.9998C18 14.5537 17.7748 15.055 17.4111 15.4172L20.4699 23.8289C20.5256 23.9822 20.5031 24.1531 20.4095 24.2867C20.316 24.4202 20.1631 24.4998 20 24.4998H16H12C11.8369 24.4998 11.684 24.4202 11.5905 24.2867C11.4969 24.1531 11.4744 23.9822 11.5301 23.8289L14.5889 15.4172C14.2252 15.055 14 14.5537 14 13.9998C14 12.8952 14.8954 11.9998 16 11.9998C17.1046 11.9998 18 12.8952 18 13.9998ZM16.809 23.4998H19.2861L18.2431 20.6315L16.809 23.4998ZM17.8316 19.4998L16.5328 15.9281C16.3632 15.9748 16.1845 15.9998 16 15.9998C15.8155 15.9998 15.6368 15.9748 15.4672 15.9281L14.1684 19.4998H17.8316ZM13.7569 20.6315L15.191 23.4998H12.7138L13.7569 20.6315ZM16 22.8818L17.191 20.4998H14.809L16 22.8818Z" fill="white"/>
</svg>
