<svg width="32" height="32" viewBox="0 0 32 32" fill="none" xmlns="http://www.w3.org/2000/svg">
<path fill-rule="evenodd" clip-rule="evenodd" d="M23.6142 1.4348L31.0001 8V12.4758C31.0001 21.6304 24.8455 29.6412 16.0001 32C7.68937 29.7838 1.75404 22.5783 1.06677 14.1226C3.70879 6.48488 10.9639 1 19.5001 1C20.9115 1 22.2879 1.14995 23.6142 1.4348Z" fill="#FA5555"/>
<path fill-rule="evenodd" clip-rule="evenodd" d="M16 32C24.8454 29.6412 31 21.6304 31 12.4758V8L22 0H10L1 8V12.4758C1 21.6304 7.15456 29.6412 16 32ZM2 8.44907V12.4758C2 21.0882 7.7307 28.6355 16 30.9632C24.2693 28.6355 30 21.0882 30 12.4758V8.44907L21.6198 1H10.3802L2 8.44907Z" fill="#D63333"/>
<path fill-rule="evenodd" clip-rule="evenodd" d="M11 9H21V16H11V9ZM10 16V8H22V16H23C24.1046 16 25 16.8954 25 18V24H7V18C7 16.8954 7.89543 16 9 16H10ZM22 17H10H9C8.44772 17 8 17.4477 8 18V23H24V18C24 17.4477 23.5523 17 23 17H22ZM13 12H15V13H13V12ZM19 12H17V13H19V12Z" fill="white"/>
</svg>
