<svg width="32" height="32" viewBox="0 0 32 32" fill="none" xmlns="http://www.w3.org/2000/svg">
<path fill-rule="evenodd" clip-rule="evenodd" d="M23.6142 1.4348L31.0001 8V12.4758C31.0001 21.6304 24.8455 29.6412 16.0001 32C7.68937 29.7838 1.75404 22.5783 1.06677 14.1226C3.70879 6.48488 10.9639 1 19.5001 1C20.9115 1 22.2879 1.14995 23.6142 1.4348Z" fill="#FA5555"/>
<path fill-rule="evenodd" clip-rule="evenodd" d="M16 32C24.8454 29.6412 31 21.6304 31 12.4758V8L22 0H10L1 8V12.4758C1 21.6304 7.15456 29.6412 16 32ZM2 8.44907V12.4758C2 21.0882 7.7307 28.6355 16 30.9632C24.2693 28.6355 30 21.0882 30 12.4758V8.44907L21.6198 1H10.3802L2 8.44907Z" fill="#D63333"/>
<path fill-rule="evenodd" clip-rule="evenodd" d="M7.86825 11.8683C7.67299 12.0635 7.67299 12.3801 7.86825 12.5754C8.06351 12.7706 8.38009 12.7706 8.57536 12.5754C12.6759 8.47487 19.3241 8.47487 23.4246 12.5754C23.6199 12.7706 23.9364 12.7706 24.1317 12.5754C24.327 12.3801 24.327 12.0635 24.1317 11.8683C19.6407 7.37724 12.3593 7.37724 7.86825 11.8683ZM9.98956 14.6967C9.79429 14.5014 9.79429 14.1848 9.98956 13.9896C13.309 10.6701 18.6909 10.6701 22.0104 13.9896C22.2056 14.1848 22.2056 14.5014 22.0104 14.6967C21.8151 14.8919 21.4985 14.8919 21.3033 14.6967C18.3743 11.7678 13.6256 11.7678 10.6967 14.6967C10.5014 14.8919 10.1848 14.8919 9.98956 14.6967ZM12.1109 16.1109C11.9156 16.3062 11.9156 16.6228 12.1109 16.818C12.3062 17.0133 12.6227 17.0133 12.818 16.818C14.5754 15.0607 17.4246 15.0607 19.182 16.818C19.3772 17.0133 19.6938 17.0133 19.8891 16.818C20.0843 16.6228 20.0843 16.3062 19.8891 16.1109C17.7412 13.963 14.2588 13.963 12.1109 16.1109ZM16 22C17.1046 22 18 21.1046 18 20C18 18.8954 17.1046 18 16 18C14.8954 18 14 18.8954 14 20C14 21.1046 14.8954 22 16 22Z" fill="white"/>
</svg>
