<svg width="32" height="32" viewBox="0 0 32 32" fill="none" xmlns="http://www.w3.org/2000/svg">
<path fill-rule="evenodd" clip-rule="evenodd" d="M23.6142 1.4348L31.0001 8V12.4758C31.0001 21.6304 24.8455 29.6412 16.0001 32C7.68937 29.7838 1.75404 22.5783 1.06677 14.1226C3.70879 6.48488 10.9639 1 19.5001 1C20.9115 1 22.2879 1.14995 23.6142 1.4348Z" fill="#FA5555"/>
<path fill-rule="evenodd" clip-rule="evenodd" d="M16 32C24.8454 29.6412 31 21.6304 31 12.4758V8L22 0H10L1 8V12.4758C1 21.6304 7.15456 29.6412 16 32ZM2 8.44907V12.4758C2 21.0882 7.7307 28.6355 16 30.9632C24.2693 28.6355 30 21.0882 30 12.4758V8.44907L21.6198 1H10.3802L2 8.44907Z" fill="#D63333"/>
<path fill-rule="evenodd" clip-rule="evenodd" d="M15.7537 8.5649C15.9104 8.47615 16.1028 8.47857 16.2573 8.57125L21.2573 11.5713C21.3933 11.6528 21.4825 11.7941 21.4977 11.952C21.5129 12.1098 21.4524 12.2656 21.3345 12.3716L17.0665 16.2129L21.3124 19.6096C21.4402 19.7118 21.5099 19.8702 21.4989 20.0336C21.4879 20.1969 21.3976 20.3445 21.2573 20.4287L16.2573 23.4287C16.1028 23.5214 15.9104 23.5239 15.7537 23.4351C15.5969 23.3463 15.5 23.1801 15.5 23V17.6227L11.3345 21.3716C11.1292 21.5564 10.8131 21.5397 10.6284 21.3345C10.4436 21.1292 10.4603 20.8131 10.6655 20.6284L15.5 16.2773V16.2403L10.6877 12.3904C10.472 12.2179 10.4371 11.9033 10.6096 11.6877C10.7821 11.472 11.0967 11.4371 11.3124 11.6096L15.5 14.9597V9C15.5 8.81986 15.5969 8.65365 15.7537 8.5649ZM16.5 17.0403L20.1262 19.9412L16.5 22.1169V17.0403ZM16.5 15.3773V9.8831L20.1628 12.0808L16.5 15.3773Z" fill="white"/>
</svg>
