<svg width="160" height="41" viewBox="0 0 160 41" fill="none" xmlns="http://www.w3.org/2000/svg">
<path fill-rule="evenodd" clip-rule="evenodd" d="M0.987549 16.7302L24.6913 0.984131L159.012 0.984131V115.143L151.111 123.016H0.987549L0.987549 16.7302Z" fill="white"/>
<path fill-rule="evenodd" clip-rule="evenodd" d="M160 0L156 5V7L160 2V0ZM160 4L156 9V11L160 6V4ZM156 13L160 8V10L156 15V13ZM160 12L156 17V19L160 14V12ZM156 21L160 16V18L156 23V21ZM160 20L156 25V27L160 22V20Z" fill="#478BFF"/>
<path fill-rule="evenodd" clip-rule="evenodd" d="M0 16.2035L24.3923 0H160V115.55L151.52 124H0V16.2035ZM24.6914 0.984127L0.987654 16.7302V123.016H151.111L159.012 115.143V0.984127H24.6914Z" fill="#0F3CB8"/>
<path fill-rule="evenodd" clip-rule="evenodd" d="M1 40L159 40V41H1V40Z" fill="#ADD1FF"/>
</svg>
