<svg width="32" height="32" viewBox="0 0 32 32" fill="none" xmlns="http://www.w3.org/2000/svg">
<path opacity="0.5" fill-rule="evenodd" clip-rule="evenodd" d="M22.9534 17.9948C23.2371 17.9326 23.5315 17.8998 23.8334 17.8998C26.1346 17.8998 28 19.8026 28 22.1498C28 24.497 26.1346 26.3998 23.8334 26.3998C23.74 26.3998 23.6474 26.3967 23.5555 26.3905V26.3998H11.3333V26.3148C9.43145 25.921 8 24.2059 8 22.1498C8 20.0761 9.4561 18.3493 11.3823 17.975C11.7546 15.055 14.2024 12.7998 17.1666 12.7998C20.1375 12.7998 22.5897 15.0652 22.9534 17.9948Z" fill="#66C947"/>
<mask id="mask0_23_56951" style="mask-type:alpha" maskUnits="userSpaceOnUse" x="8" y="12" width="20" height="15">
<path fill-rule="evenodd" clip-rule="evenodd" d="M22.9534 17.9948C23.2371 17.9326 23.5315 17.8998 23.8334 17.8998C26.1346 17.8998 28 19.8026 28 22.1498C28 24.497 26.1346 26.3998 23.8334 26.3998C23.74 26.3998 23.6474 26.3967 23.5555 26.3905V26.3998H11.3333V26.3148C9.43145 25.921 8 24.2059 8 22.1498C8 20.0761 9.4561 18.3493 11.3823 17.975C11.7546 15.055 14.2024 12.7998 17.1666 12.7998C20.1375 12.7998 22.5897 15.0652 22.9534 17.9948Z" fill="white"/>
</mask>
<g mask="url(#mask0_23_56951)">
<g opacity="0.5">
<ellipse cx="9.38887" cy="9.11647" rx="13.0556" ry="13.3167" fill="#66C947" style="mix-blend-mode:screen"/>
</g>
</g>
<path fill-rule="evenodd" clip-rule="evenodd" d="M9.89358 13.7362L9.29997 13.7781C6.76724 13.9571 4.8 16.0117 4.8 18.4828C4.8 20.9113 6.69983 22.9374 9.16977 23.1765L9.41271 23.2H20.9756C23.9906 23.2 26.4 20.8221 26.4 17.931C26.4 15.2179 24.2793 12.9577 21.5257 12.6888L21.0553 12.6428L20.8686 12.2087C20.0104 10.2138 17.9805 8.8 15.6 8.8C12.8555 8.8 10.5812 10.6776 10.0241 13.1556L9.89358 13.7362ZM9.09268 24V23.9728C6.23324 23.6959 4 21.3436 4 18.4828C4 15.5717 6.3122 13.1873 9.24358 12.9801C9.88388 10.1319 12.4866 8 15.6 8C18.3023 8 20.6199 9.60604 21.6035 11.8926C24.7463 12.1995 27.2 14.7859 27.2 17.931C27.2 21.2828 24.4132 24 20.9756 24H9.09268Z" fill="#399E19"/>
</svg>
