<svg width="96" height="36" viewBox="0 0 96 36" fill="none" xmlns="http://www.w3.org/2000/svg">
<path fill-rule="evenodd" clip-rule="evenodd" d="M12.9258 4H95.9999L87.9928 32H11.9249V30L0.915039 18L10.924 8L12.9258 4Z" fill="white"/>
<path fill-rule="evenodd" clip-rule="evenodd" d="M91.9964 4H16.9293H12.9258L10.924 8H14.9276L16.4289 5H91.7104L84.2752 31H13.3135L14.1918 28.3675L12.9258 27.9459V29L11.9249 32H83.9892H87.9928L95.9999 4H91.9964ZM0.146577 17.6464C-0.0488592 17.8417 -0.0488592 18.1583 0.146577 18.3536L7.21355 25.4142L7.92128 24.7071L1.20819 18L7.92128 11.2929L7.21355 10.5858L0.146577 17.6464Z" fill="#66C947"/>
<path fill-rule="evenodd" clip-rule="evenodd" d="M70.9776 0H82.9883L84.9901 4H67.9749L70.9776 0ZM13.2397 9.51472L21.7326 18L13.2397 26.4853L4.74683 18L13.2397 9.51472ZM13.2385 13.7572L8.99205 17.9998L13.2385 22.2424L17.4849 17.9998L13.2385 13.7572ZM69.9767 36H25.9374L22.9347 32H71.9785L69.9767 36Z" fill="#66C947"/>
<path fill-rule="evenodd" clip-rule="evenodd" d="M21.8751 29.0711L19.0442 26.2426L27.5371 17.7574L19.0442 9.27208L21.8751 6.44365L33.199 17.7574L21.8751 29.0711ZM33.2579 29.0711L30.4269 26.2426L38.9198 17.7574L30.4269 9.27208L33.2579 6.44365L44.5817 17.7574L33.2579 29.0711ZM84.9903 8H43.9537L46.9564 12H87.993L84.9903 8Z" fill="#66C947"/>
</svg>
