<svg width="16px" height="16px" viewBox="0 0 16 16" version="1.1" xmlns="http://www.w3.org/2000/svg" xmlns:xlink="http://www.w3.org/1999/xlink">
    <!-- Generator: Sketch 63 (92445) - https://sketch.com -->
    <title>域名解析列表</title>
    <desc>Created with Sketch.</desc>
    <g id="页面-1" stroke="none" stroke-width="1" fill="none" fill-rule="evenodd">
        <g id="画板8备份-3">
            <g id="域名解析列表">
                <rect id="矩形" fill="#FFFFFF" opacity="0" x="0" y="0" width="16" height="16"></rect>
                <path d="M16,13 L16,15 L11,15 L11,16 L10,16 L9,15 L9,13 L16,13 Z M15,1 L15,8 L13,8 L13,7 L3,7 L3,13 L8,13 L8,15 L1,15 L1,1 L15,1 Z M15,9 L16,10 L16,12 L9,12 L9,10 L14,10 L14,9 L15,9 Z M13,3 L3,3 L3,5 L13,5 L13,3 Z" id="形状" fill="#888888" fill-rule="nonzero"></path>
            </g>
        </g>
    </g>
</svg>