<?xml version="1.0" encoding="UTF-8"?>
<svg width="16px" height="16px" viewBox="0 0 16 16" version="1.1" xmlns="http://www.w3.org/2000/svg" xmlns:xlink="http://www.w3.org/1999/xlink">
    <!-- Generator: Sketch 55.2 (78181) - https://sketchapp.com -->
    <title>search</title>
    <desc>Created with Sketch.</desc>
    <g id="search" stroke="none" stroke-width="1" fill="none" fill-rule="evenodd">
        <g id="编组">
            <rect id="矩形" fill="#FFFFFF" opacity="0" x="0" y="0" width="16" height="16"></rect>
            <path d="M12.896054,10.7747337 L16,13.8786797 L13.8786797,16 L10.7747337,12.896054 C9.68557721,13.5947944 8.39010903,14 7,14 C3.13400675,14 3.46389584e-14,10.8659932 3.46389584e-14,7 C3.46389584e-14,3.13400675 3.13400675,2.48689958e-14 7,2.48689958e-14 C10.8659932,2.48689958e-14 14,3.13400675 14,7 C14,8.39010903 13.5947944,9.68557721 12.896054,10.7747337 Z M7,12 C9.76142375,12 12,9.76142375 12,7 C12,4.23857625 9.76142375,2 7,2 C4.23857625,2 2,4.23857625 2,7 C2,9.76142375 4.23857625,12 7,12 Z" id="Combined-Shape" fill="#888888"></path>
        </g>
    </g>
</svg>