<?xml version="1.0" encoding="UTF-8"?>
<svg width="16px" height="16px" viewBox="0 0 16 16" version="1.1" xmlns="http://www.w3.org/2000/svg" xmlns:xlink="http://www.w3.org/1999/xlink">
    <!-- Generator: Sketch 53.2 (72643) - https://sketchapp.com -->
    <title>数据概览-normal</title>
    <desc>Created with Sketch.</desc>
    <g id="数据治理平台-视觉" stroke="none" stroke-width="1" fill="none" fill-rule="evenodd">
        <g id="icon" transform="translate(-246.000000, -108.000000)" fill="#888888">
            <path d="M246,108 L262,108 L262,121 L246,121 L246,108 Z M248,110 L248,119 L260,119 L260,110 L248,110 Z M249,122 L259,122 L259,124 L249,124 L249,122 Z M250,113 L252,113 L252,117 L250,117 L250,113 Z M253,114 L255,114 L255,117 L253,117 L253,114 Z M256,112 L258,112 L258,117 L256,117 L256,112 Z" id="合并形状-copy-5"></path>
        </g>
    </g>
</svg>