<svg width="16" height="17" viewBox="0 0 16 17" fill="none" xmlns="http://www.w3.org/2000/svg">
<path fill-rule="evenodd" clip-rule="evenodd" d="M10.347 14.021C11.0244 12.6013 11.4352 11.0692 11.559 9.501H13.909C13.7403 10.4921 13.3259 11.425 12.7036 12.2146C12.0814 13.0042 11.2712 13.6253 10.347 14.021ZM2.09 9.502H4.44C4.56409 11.0702 4.97525 12.6023 5.653 14.022C4.72866 13.6264 3.91823 13.0054 3.2958 12.2158C2.67337 11.4262 2.2588 10.4932 2.09 9.502ZM5.653 2.98C4.97525 4.39966 4.56409 5.93176 4.44 7.5H2.09C2.25849 6.50848 2.67292 5.57503 3.29536 4.78505C3.91781 3.99507 4.72841 3.37377 5.653 2.978V2.98ZM9.554 9.5C9.40134 11.1609 8.8697 12.7647 8 14.188C7.13061 12.7647 6.59932 11.1609 6.447 9.5H9.554ZM6.447 7.5C6.59916 5.83941 7.13047 4.2359 8 2.813C8.87 4.23612 9.40165 5.83999 9.554 7.501H6.447V7.5ZM13.91 7.5H11.559C11.4356 5.9308 11.0248 4.39765 10.347 2.977C11.2717 3.37286 12.0824 3.99431 12.7049 4.78448C13.3273 5.57464 13.7417 6.5083 13.91 7.5ZM8 0.5C5.87827 0.5 3.84344 1.34285 2.34315 2.84315C0.842855 4.34344 0 6.37827 0 8.5C0 10.6217 0.842855 12.6566 2.34315 14.1569C3.84344 15.6571 5.87827 16.5 8 16.5C10.1217 16.5 12.1566 15.6571 13.6569 14.1569C15.1571 12.6566 16 10.6217 16 8.5C16 6.37827 15.1571 4.34344 13.6569 2.84315C12.1566 1.34285 10.1217 0.5 8 0.5V0.5Z" fill="#888888"/>
</svg>
