<svg width="15" height="15" viewBox="0 0 15 15" fill="none" xmlns="http://www.w3.org/2000/svg">
<path fill-rule="evenodd" clip-rule="evenodd" d="M2 12.5H13V2.5H2V12.5ZM0 14.5H15V0.5H0V14.5ZM8 9.5V10.5H6V4.5H9.5C10.163 4.5 10.7989 4.76339 11.2678 5.23223C11.7366 5.70107 12 6.33696 12 7C12 7.66304 11.7366 8.29893 11.2678 8.76777C10.7989 9.23661 10.163 9.5 9.5 9.5H8ZM3 10.5V4.5H5V10.5H3ZM8 6.5V7.5H9.5C9.63261 7.5 9.75979 7.44732 9.85355 7.35355C9.94732 7.25979 10 7.13261 10 7C10 6.86739 9.94732 6.74021 9.85355 6.64645C9.75979 6.55268 9.63261 6.5 9.5 6.5H8Z" fill="#888888"/>
</svg>
