<svg width="16" height="17" viewBox="0 0 16 17" fill="none" xmlns="http://www.w3.org/2000/svg">
<path d="M8 2.5C9.18669 2.5 10.3467 2.85189 11.3334 3.51118C12.3201 4.17047 13.0892 5.10754 13.5433 6.2039C13.9974 7.30026 14.1162 8.50666 13.8847 9.67054C13.6532 10.8344 13.0818 11.9035 12.2426 12.7426C11.4035 13.5818 10.3344 14.1532 9.17054 14.3847C8.00666 14.6162 6.80026 14.4974 5.7039 14.0433C4.60754 13.5892 3.67047 12.8201 3.01118 11.8334C2.35189 10.8467 2 9.68669 2 8.5C2 6.9087 2.63214 5.38258 3.75736 4.25736C4.88258 3.13214 6.4087 2.5 8 2.5ZM8 0.5C5.87827 0.5 3.84344 1.34285 2.34315 2.84315C0.842855 4.34344 0 6.37827 0 8.5C0 10.6217 0.842855 12.6566 2.34315 14.1569C3.84344 15.6571 5.87827 16.5 8 16.5C10.1217 16.5 12.1566 15.6571 13.6569 14.1569C15.1571 12.6566 16 10.6217 16 8.5C16 6.37827 15.1571 4.34344 13.6569 2.84315C12.1566 1.34285 10.1217 0.5 8 0.5V0.5Z" fill="#888888"/>
<path d="M9 10.5H7V12.5H9V10.5ZM9 4.5H7V9.5H9V4.5Z" fill="#888888"/>
</svg>
