<?xml version="1.0" encoding="UTF-8"?>
<svg width="16px" height="16px" viewBox="0 0 16 16" version="1.1" xmlns="http://www.w3.org/2000/svg" xmlns:xlink="http://www.w3.org/1999/xlink">
    <!-- Generator: Sketch 55.2 (78181) - https://sketchapp.com -->
    <title>alert</title>
    <desc>Created with Sketch.</desc>
    <g id="alert" stroke="none" stroke-width="1" fill="none" fill-rule="evenodd">
        <g id="编组" fill="#888888">
            <rect id="Rectangle-Copy-3" opacity="0" x="0" y="0" width="16" height="16"></rect>
            <path d="M1,13 L15,13 L15,15 L1,15 L1,13 Z M4,7 C4,4.790861 5.790861,3 8,3 L8,5 C6.8954305,5 6,5.8954305 6,7 L6,8 L4,8 L4,7 Z M8,0 C11.8659932,0 15,3.13400675 15,7 L15,12 L1,12 L1,7 C1,3.13400675 4.13400675,0 8,0 Z M3,10 L13,10 L13,7 C13,4.23857625 10.7614237,2 8,2 C5.23857625,2 3,4.23857625 3,7 L3,10 Z" id="Combined-Shape"></path>
        </g>
    </g>
</svg>