<?xml version="1.0" encoding="UTF-8"?>
<svg width="31px" height="31px" viewBox="0 0 31 31" version="1.1" xmlns="http://www.w3.org/2000/svg" xmlns:xlink="http://www.w3.org/1999/xlink">
    <title>合并形状</title>
    <g id="腾讯云控制台组件库UIKit" stroke="none" stroke-width="1" fill="none" fill-rule="evenodd">
        <g id="组件库" transform="translate(-725.000000, -605.000000)" fill="#E54545">
            <g id="操作类图标" transform="translate(211.000000, 393.000000)">
                <g id="错误" transform="translate(514.000000, 212.000000)">
                    <path d="M15.5,0 C24.061,0 31,6.939 31,15.5 C31,24.061 24.061,31 15.5,31 C6.939,31 0,24.061 0,15.5 C0,6.939 6.939,0 15.5,0 Z M15.5,3 C8.607,3 3,8.607 3,15.5 C3,22.393 8.607,28 15.5,28 C22.393,28 28,22.393 28,15.5 C28,8.607 22.393,3 15.5,3 Z M17,20 L17,23 L14,23 L14,20 L17,20 Z M17,8 L17,18 L14,18 L14,8 L17,8 Z" id="合并形状"></path>
                </g>
            </g>
        </g>
    </g>
</svg>