<svg width="120" height="140" viewBox="0 0 120 140" fill="none" xmlns="http://www.w3.org/2000/svg">
<path d="M60.439 110.034C89.9525 110.034 113.878 102.442 113.878 93.0764C113.878 83.7111 89.9525 76.1191 60.439 76.1191C30.9254 76.1191 7 83.7111 7 93.0764C7 102.442 30.9254 110.034 60.439 110.034Z" fill="url(#paint0_linear_935_70853)"/>
<path d="M29.9478 102.014L27.0635 100.43C26.2077 99.9541 25.6372 99.0033 25.6372 97.7988L28.5215 99.3836C28.4898 100.588 29.0603 101.539 29.9478 102.014Z" fill="#858585"/>
<path d="M28.4898 99.4146L25.6055 97.8298L25.7639 21.6016L28.6483 23.1547L28.4898 99.4146Z" fill="#828282"/>
<path d="M28.648 23.1558L25.7637 21.571C25.7637 21.1273 25.8588 20.6835 26.0172 20.2715L28.9015 21.8563C28.7114 22.2683 28.648 22.7121 28.648 23.1558Z" fill="#858585"/>
<path d="M28.8702 21.8556L25.9858 20.2708C26.0492 20.0806 26.1443 19.9222 26.2077 19.7637L29.092 21.3485C29.0286 21.5069 28.9335 21.6654 28.8702 21.8556Z" fill="#8A8A8A"/>
<path d="M29.1236 21.3484L26.2393 19.7636C26.3026 19.6368 26.3977 19.4783 26.4928 19.3516L29.3771 20.9363C29.282 21.0631 29.187 21.1899 29.1236 21.3484Z" fill="#8F8F8F"/>
<path d="M29.377 20.9373L26.4927 19.3526C26.5878 19.2258 26.6829 19.099 26.7779 19.0039L29.6623 20.5887C29.5355 20.6838 29.4404 20.8106 29.377 20.9373Z" fill="#949494"/>
<path d="M29.6309 20.556L26.7466 18.9713C26.8417 18.8445 26.9368 18.7494 27.0635 18.6543L29.9478 20.2391C29.8528 20.3659 29.7577 20.461 29.6309 20.556Z" fill="#999999"/>
<path d="M29.9478 20.2392L27.0635 18.6544C27.1903 18.5593 27.317 18.4642 27.4438 18.3691L30.3281 19.9539C30.2014 20.049 30.0746 20.1441 29.9478 20.2392Z" fill="#9E9E9E"/>
<path d="M30.3282 19.954L27.4438 18.3692C27.6023 18.2742 27.7608 18.1474 27.951 18.084L30.8353 19.6688C30.6451 19.7639 30.4866 19.8589 30.3282 19.954Z" fill="#A3A3A3"/>
<path d="M30.835 19.6689L27.9507 18.0841C28.2359 17.9573 28.5529 17.8622 28.8382 17.7988L31.7225 19.3836C31.4372 19.447 31.1203 19.5421 30.835 19.6689Z" fill="#A8A8A8"/>
<path d="M86.9683 11.6178L84.084 10.033C84.4643 9.96959 84.813 10.0013 85.1616 10.0964L88.046 11.6812C87.6973 11.6178 87.3486 11.5861 86.9683 11.6178Z" fill="#A8A8A8"/>
<path d="M88.0459 11.6805L85.1616 10.0957C85.3201 10.1274 85.5103 10.1908 85.6371 10.2859L88.5214 11.8707C88.3629 11.8073 88.2044 11.7439 88.0459 11.6805Z" fill="#A3A3A3"/>
<path d="M88.5215 11.8719L85.6372 10.2871C85.6689 10.2871 85.7006 10.3188 85.7323 10.3505L88.6166 11.9353C88.5849 11.9036 88.5532 11.8719 88.5215 11.8719Z" fill="#9E9E9E"/>
<path d="M31.7227 19.383L28.8384 17.8299L84.084 10.0645L86.9683 11.6175L31.7227 19.383Z" fill="#B4B4B4"/>
<path d="M86.9366 11.6175C88.6482 11.364 90.0111 12.6635 90.0111 14.5335L89.8843 90.7617C89.8843 92.6001 88.4897 94.28 86.7781 94.5335L31.5325 102.299C29.8209 102.553 28.458 101.253 28.458 99.383L28.5848 23.1548C28.5848 21.3164 29.9794 19.6366 31.691 19.383L86.9366 11.6175Z" fill="#E0E0E0"/>
<path d="M35.8431 23.0924L83.767 16.056C86.2076 15.739 86.4928 17.9577 86.4928 19.3206V66.8008C86.4928 82.8072 94.9556 83.3777 94.9556 83.3777L41.9604 90.4775C41.9604 90.4775 33.0539 91.2065 32.7686 74.9149L32.0713 26.8642C32.0713 24.7406 33.7195 23.0924 35.8431 23.0924Z" fill="white"/>
<path d="M52.9588 53.0452L52.103 52.5698C52.2932 52.5381 52.4834 52.5698 52.6419 52.6015L53.4976 53.0769C53.3392 53.0135 53.149 53.0135 52.9588 53.0452Z" fill="#00307D"/>
<path d="M53.4979 53.077L52.6421 52.6016C52.7372 52.6333 52.8006 52.665 52.8957 52.6967L53.7514 53.1721C53.6564 53.1087 53.593 53.077 53.4979 53.077Z" fill="#002E7A"/>
<path d="M53.7513 53.1727L52.8955 52.6973C52.9272 52.6973 52.9272 52.729 52.9272 52.729L53.783 53.2044C53.783 53.1727 53.7513 53.1727 53.7513 53.1727Z" fill="#002D76"/>
<path d="M52.1346 56.2472L51.2788 55.7718C50.8351 55.5499 50.5498 55.0428 50.5498 54.4722C50.5498 54.2504 50.5815 54.0285 50.6766 53.8066L51.5324 54.2821C51.469 54.5039 51.4056 54.7258 51.4056 54.9477C51.4056 55.5182 51.6909 56.0253 52.1346 56.2472Z" fill="#002563"/>
<path d="M51.5325 54.2817L50.6768 53.8063C50.7085 53.7112 50.7401 53.6161 50.8035 53.5527L51.6593 54.0282C51.5959 54.0916 51.5642 54.1866 51.5325 54.2817Z" fill="#002767"/>
<path d="M51.6273 54.0289L50.7715 53.5535C50.8032 53.4901 50.8666 53.4267 50.8983 53.3633L51.754 53.8387C51.7224 53.8704 51.6907 53.9338 51.6273 54.0289Z" fill="#00286A"/>
<path d="M51.7542 53.8062L50.8984 53.3308C50.9301 53.2674 50.9935 53.204 51.0252 53.1406L51.881 53.6161C51.8493 53.6794 51.8176 53.7428 51.7542 53.8062Z" fill="#002A6E"/>
<path d="M51.9129 53.6476L51.0571 53.1722C51.1205 53.1088 51.1522 53.0771 51.2156 53.0137L52.0714 53.4891C52.008 53.5208 51.9446 53.5842 51.9129 53.6476Z" fill="#002B72"/>
<path d="M52.0711 53.4581L51.2153 52.9827C51.2787 52.9193 51.3421 52.8876 51.4055 52.8242L52.2613 53.2997C52.1979 53.363 52.1345 53.4264 52.0711 53.4581Z" fill="#002D76"/>
<path d="M52.2615 53.3312L51.4058 52.8557C51.5008 52.7924 51.5642 52.7607 51.6593 52.6973L52.5151 53.1727C52.42 53.2044 52.3249 53.2678 52.2615 53.3312Z" fill="#002E7A"/>
<path d="M52.515 53.1725L51.6592 52.6971C51.8177 52.6337 51.9444 52.5703 52.1029 52.5703L52.9587 53.0457C52.8002 53.0774 52.6417 53.1091 52.515 53.1725Z" fill="#00307D"/>
<path d="M52.9589 53.0448C53.8146 52.918 54.5119 53.5836 54.5119 54.5028C54.5119 55.422 53.8146 56.2778 52.9589 56.4046C52.1031 56.5313 51.4058 55.8657 51.4058 54.9465C51.4058 53.9957 52.1031 53.1716 52.9589 53.0448Z" fill="#003FA6"/>
<path d="M61.2 51.8714L60.3442 51.3959C60.5344 51.3642 60.7246 51.3959 60.8831 51.4276L61.7388 51.9031C61.5804 51.8714 61.3902 51.8397 61.2 51.8714Z" fill="#00307D"/>
<path d="M61.7391 51.9032L60.8833 51.4277C60.9784 51.4594 61.0418 51.4911 61.1369 51.5228L61.9927 51.9983C61.9293 51.9666 61.8342 51.9349 61.7391 51.9032Z" fill="#002E7A"/>
<path d="M61.9925 51.9989L61.1367 51.5234C61.1684 51.5234 61.1684 51.5551 61.1684 51.5551L62.0242 52.0306L61.9925 51.9989Z" fill="#002D76"/>
<path d="M60.3758 55.0734L59.52 54.598C59.0763 54.3761 58.791 53.8689 58.791 53.2984C58.791 53.0766 58.8227 52.8547 58.9178 52.6328L59.7736 53.1082C59.7102 53.3301 59.6468 53.552 59.6468 53.7739C59.6468 54.3761 59.9321 54.8515 60.3758 55.0734Z" fill="#002563"/>
<path d="M59.7738 53.1079L58.918 52.6325C58.9497 52.5374 58.9814 52.4423 59.0447 52.3789L59.9005 52.8543C59.8371 52.9494 59.8054 53.0128 59.7738 53.1079Z" fill="#002767"/>
<path d="M59.9002 52.8531L59.0444 52.3777C59.0761 52.3143 59.1395 52.2509 59.1712 52.1875L60.027 52.6629C59.9636 52.7263 59.9319 52.7897 59.9002 52.8531Z" fill="#00286A"/>
<path d="M60.0272 52.6637L59.1714 52.1882C59.2031 52.1248 59.2665 52.0614 59.2982 51.998L60.154 52.4735C60.1223 52.5369 60.0589 52.6003 60.0272 52.6637Z" fill="#002A6E"/>
<path d="M60.1541 52.4738L59.2983 51.9983C59.3617 51.9349 59.3934 51.9032 59.4568 51.8398L60.3126 52.3153C60.2492 52.347 60.2175 52.4104 60.1541 52.4738Z" fill="#002B72"/>
<path d="M60.3123 52.3156L59.4565 51.8401C59.5199 51.7767 59.5833 51.745 59.6467 51.6816L60.5025 52.1571C60.4391 52.2205 60.3757 52.2522 60.3123 52.3156Z" fill="#002D76"/>
<path d="M60.5028 52.1574L59.647 51.6819C59.7421 51.6185 59.8054 51.5868 59.9005 51.5234L60.7563 51.9989C60.6612 52.0623 60.5979 52.094 60.5028 52.1574Z" fill="#002E7A"/>
<path d="M60.7562 52.03L59.9004 51.5545C60.0589 51.4911 60.1857 51.4277 60.3441 51.4277L61.1999 51.9032C61.0414 51.9032 60.883 51.9349 60.7562 52.03Z" fill="#00307D"/>
<path d="M61.2001 51.871C62.0558 51.7442 62.7531 52.4098 62.7531 53.329C62.7531 54.2481 62.0558 55.1039 61.2001 55.2307C60.3443 55.3575 59.647 54.6919 59.647 53.7727C59.647 52.8535 60.3443 51.9978 61.2001 51.871Z" fill="#003FA6"/>
<path d="M69.4725 50.7307L68.6167 50.2553C68.8069 50.2236 68.997 50.2553 69.1555 50.287L70.0113 50.7624C69.8211 50.6991 69.631 50.6991 69.4725 50.7307Z" fill="#00307D"/>
<path d="M69.9798 50.7625L69.124 50.2871C69.2191 50.3188 69.2825 50.3505 69.3776 50.3822L70.2334 50.8576C70.17 50.7942 70.0749 50.7625 69.9798 50.7625Z" fill="#002E7A"/>
<path d="M70.2332 50.825L69.3774 50.3496C69.4091 50.3496 69.4091 50.3813 69.4091 50.3813L70.2649 50.8567C70.2649 50.8567 70.2649 50.8567 70.2332 50.825Z" fill="#002D76"/>
<path d="M68.6165 53.9328L67.7607 53.4573C67.317 53.2355 67.0317 52.7283 67.0317 52.1578C67.0317 51.9359 67.0634 51.7141 67.1585 51.4922L68.0143 51.9676C67.9509 52.1895 67.8875 52.4114 67.8875 52.6332C67.8875 53.2038 68.2045 53.6792 68.6165 53.9328Z" fill="#002563"/>
<path d="M68.0145 51.9673L67.1587 51.4918C67.1904 51.3968 67.2221 51.3017 67.2855 51.2383L68.1412 51.7137C68.1096 51.7771 68.0462 51.8722 68.0145 51.9673Z" fill="#002767"/>
<path d="M68.141 51.6812L67.2852 51.2058C67.3169 51.1424 67.3802 51.079 67.4119 51.0156L68.2677 51.4911C68.2043 51.5545 68.1726 51.6178 68.141 51.6812Z" fill="#00286A"/>
<path d="M68.2679 51.4918L67.4121 51.0163C67.4438 50.953 67.5072 50.8896 67.5389 50.8262L68.3947 51.3016C68.363 51.365 68.2996 51.4284 68.2679 51.4918Z" fill="#002A6E"/>
<path d="M68.3948 51.3019L67.5391 50.8264C67.6025 50.7631 67.6341 50.7314 67.6975 50.668L68.5533 51.1434C68.5216 51.2068 68.4582 51.2702 68.3948 51.3019Z" fill="#002B72"/>
<path d="M68.553 51.1437L67.6973 50.6682C67.7607 50.6049 67.8241 50.5732 67.8874 50.5098L68.7432 50.9852C68.6798 51.0486 68.6164 51.112 68.553 51.1437Z" fill="#002D76"/>
<path d="M68.7435 51.0167L67.8877 50.5413C67.9828 50.4779 68.0462 50.4462 68.1413 50.3828L68.9971 50.8582C68.902 50.8899 68.8386 50.9533 68.7435 51.0167Z" fill="#002E7A"/>
<path d="M68.9969 50.8581L68.1411 50.3826C68.2996 50.3193 68.4264 50.2559 68.5849 50.2559L69.4406 50.7313C69.3139 50.7313 69.1554 50.7947 68.9969 50.8581Z" fill="#00307D"/>
<path d="M69.4725 50.7303C70.3283 50.6036 71.0256 51.2692 71.0256 52.1883C71.0256 53.1075 70.3283 53.9633 69.4725 54.0901C68.6167 54.2169 67.9194 53.5513 67.9194 52.6321C67.9194 51.6812 68.6167 50.8571 69.4725 50.7303Z" fill="#003FA6"/>
<path d="M50.8669 17.0706L50.2964 16.7536L70.0428 13.9961L70.6133 14.3131L50.8669 17.0706Z" fill="#8D8D8D"/>
<path d="M50.8669 19.8915V17.1023V15.8978L47.4121 13.9961V15.2005L50.2964 16.7853V19.5745C50.2964 20.2718 50.5183 20.8741 50.8669 21.3495C51.0888 21.6348 51.3424 21.8566 51.6593 22.0151L52.2299 22.3321C51.4058 21.8883 50.8669 21.0008 50.8669 19.8915Z" fill="#666666"/>
<path d="M50.8669 15.896L47.4121 13.9943L67.1585 11.2051L70.6134 13.1068L50.8669 15.896Z" fill="#8D8D8D"/>
<path d="M70.6131 13.1074L50.8667 15.8966V17.1011V19.8903C50.8667 21.6336 52.1662 22.838 53.751 22.6161L67.6971 20.651C69.3136 20.4291 70.6131 18.8443 70.6131 17.1011V14.3119V13.1074Z" fill="#AFAFAF"/>
<path d="M40.176 127.39V128.244H45.314V127.39H40.176ZM42.696 127.754V131.59H43.676V127.754H42.696ZM34.436 131.884V137.134H35.444V132.724H42.556V137.092H43.606V131.884H34.436ZM35.136 133.872V134.628H42.864V133.872H35.136ZM35.136 135.804V136.63H42.906V135.804H35.136ZM44.348 124.45C43.298 124.8 41.45 125.052 39.91 125.178C40.008 125.402 40.12 125.738 40.162 125.948C41.744 125.85 43.662 125.612 44.922 125.234L44.348 124.45ZM39.91 125.178V127.278C39.91 128.426 39.798 129.952 38.888 131.086C39.112 131.17 39.532 131.45 39.7 131.604C40.652 130.414 40.848 128.608 40.848 127.292V125.178H39.91ZM32.742 125.178V126.004H39.238V125.178H32.742ZM36.06 126.592V131.604H37.04V126.592H36.06ZM33.232 128.552C33.232 128.356 33.778 128.048 33.778 128.048V128.02C34.646 127.166 35.598 125.822 36.326 124.506L35.276 124.212C34.772 125.402 33.876 126.676 33.624 126.998C33.358 127.32 33.134 127.558 32.91 127.6C33.022 127.866 33.176 128.342 33.232 128.552ZM33.232 128.552C33.358 128.44 33.792 128.356 34.38 128.356H39.252V127.516H33.792L33.232 127.796V128.552ZM32.756 129.812L32.854 130.708C34.506 130.512 36.886 130.26 39.182 130.008V129.21C36.774 129.448 34.324 129.686 32.756 129.812ZM46.728 129.322V130.33H59.286V129.322H46.728ZM47.596 125.178V126.186H58.474V125.178H47.596ZM53.154 130.904V135.37C53.154 136.63 53.56 136.98 55.016 136.98C55.324 136.98 57.354 136.98 57.676 136.98C59.034 136.98 59.356 136.392 59.51 134.138C59.216 134.082 58.74 133.9 58.488 133.704C58.404 135.636 58.306 135.944 57.606 135.944C57.158 135.944 55.45 135.944 55.128 135.944C54.386 135.944 54.246 135.846 54.246 135.37V130.904H53.154ZM52.272 125.584C52.202 130.638 52.202 134.544 46.56 136.266C46.798 136.49 47.106 136.882 47.232 137.162C53.098 135.244 53.238 130.988 53.336 125.584H52.272ZM60.546 131.716V132.598H67.42V131.716H60.546ZM60.63 126.83V127.684H67.378V126.83H60.63ZM63.15 130.512C62.562 131.8 61.68 133.522 61.05 134.586L61.974 134.908C62.618 133.802 63.5 132.094 64.13 130.722L63.15 130.512ZM65.25 132.234C64.816 134.614 63.5 135.762 60.574 136.252C60.77 136.462 60.98 136.84 61.05 137.12C64.284 136.434 65.754 135.09 66.23 132.36L65.25 132.234ZM66.132 124.52C65.88 125.066 65.418 125.878 65.068 126.382L65.768 126.732C66.16 126.256 66.622 125.556 67.028 124.912L66.132 124.52ZM63.528 124.24V130.68H64.494V124.24H63.528ZM61.148 124.912C61.54 125.486 61.904 126.256 62.03 126.76L62.856 126.382C62.716 125.878 62.338 125.136 61.946 124.576L61.148 124.912ZM63.542 127.208C62.926 128.286 61.638 129.406 60.476 129.91C60.672 130.12 60.924 130.47 61.05 130.708C62.254 130.05 63.57 128.804 64.256 127.628L63.542 127.208ZM64.382 127.698L63.878 128.146C64.466 128.538 65.922 129.63 66.426 130.106L67 129.336C66.594 129.042 64.886 127.964 64.382 127.698ZM68.442 126.83V127.81H73.426V126.83H68.442ZM68.792 124.24C68.4 126.718 67.672 129.084 66.482 130.568C66.734 130.736 67.168 131.086 67.336 131.282C68.568 129.644 69.394 127.138 69.856 124.394L68.792 124.24ZM71.55 127.39C70.976 131.828 69.632 134.656 66.3 136.224C66.51 136.448 66.818 136.91 66.93 137.162C70.458 135.342 71.942 132.332 72.614 127.502L71.55 127.39ZM69.002 127.698L68.05 127.852C68.75 132.094 70.08 135.51 72.824 137.12C72.978 136.84 73.314 136.434 73.566 136.224C70.962 134.852 69.618 131.548 69.002 127.698ZM61.89 134.39C63.514 135.048 65.18 135.986 66.146 136.77L66.874 136.014C65.866 135.244 64.13 134.32 62.45 133.676L61.89 134.39ZM80.02 124.856V125.78H85.914V127.572H80.048V128.482H86.922V124.856H80.02ZM79.53 124.856V129.098C79.53 131.324 79.39 134.376 77.934 136.532C78.186 136.63 78.62 136.938 78.802 137.12C80.342 134.866 80.552 131.45 80.552 129.098V124.856H79.53ZM80.09 130.022V130.946H87.398V130.022H80.09ZM81.21 135.692V136.56H86.39V135.692H81.21ZM83.268 128.37V133.074H84.276V128.37H83.268ZM80.762 132.682V137.134H81.7V133.578H85.998V137.078H86.964V132.682H80.762ZM74.406 131.688L74.672 132.71C75.876 132.318 77.43 131.814 78.914 131.324L78.774 130.358C77.164 130.876 75.498 131.38 74.406 131.688ZM74.574 127.068V128.048H78.9V127.068H74.574ZM76.338 124.254V135.804C76.338 136.014 76.254 136.07 76.086 136.07C75.918 136.07 75.386 136.07 74.77 136.056C74.91 136.35 75.036 136.784 75.078 137.036C75.96 137.036 76.506 137.008 76.828 136.84C77.178 136.672 77.304 136.392 77.304 135.818V124.254H76.338Z" fill="black" fill-opacity="0.6"/>
<defs>
<linearGradient id="paint0_linear_935_70853" x1="60.4495" y1="60.7647" x2="60.4495" y2="114.523" gradientUnits="userSpaceOnUse">
<stop stop-color="#C8C8C8"/>
<stop offset="1" stop-color="white" stop-opacity="0"/>
</linearGradient>
</defs>
</svg>
