<svg width="16" height="16" viewBox="0 0 16 16" fill="none" xmlns="http://www.w3.org/2000/svg">
<path fill-rule="evenodd" clip-rule="evenodd" d="M8 15C11.866 15 15 11.866 15 8C15 4.13401 11.866 1 8 1C4.13401 1 1 4.13401 1 8C1 11.866 4.13401 15 8 15Z" fill="#0052D9"/>
<path d="M4.5 5H11.9999V4H4.5V5Z" fill="white"/>
<path d="M5.48494 9.42973L7.59467 7.39588L7.5947 13.0442L8.60556 13.0441L8.60553 7.39055L10.7859 9.46761L11.4996 8.76713L8.44713 5.83449C8.25291 5.64789 7.94579 5.64866 7.75251 5.83623L4.76904 8.73152L5.48494 9.42973Z" fill="white"/>
</svg>
