<svg id="图层_1" data-name="图层 1" xmlns="http://www.w3.org/2000/svg" width="16" height="16" viewBox="0 0 16 16">
  <title>密钥管理服务-16px-灰色</title>
  <g id="密钥管理服务-16px">
    <rect id="Rectangle-Copy" width="16" height="16" style="fill: #444;fill-opacity: 0"/>
    <path id="合并形状" d="M12.727,2a8,8,0,0,1,.36,12.629l-.926-1.852a6,6,0,0,0-.337-8.947l-.093.161ZM2.913,14.629A8,8,0,0,1,3.273,2l.912,1.823a6,6,0,0,0-.346,8.954Z" style="fill: #888"/>
    <path id="Combined-Shape" d="M10,9l1-1V5H5V8L6,9v4H9l1-1V11H8V10h2ZM7,7H9V8H7Z" style="fill: #888"/>
  </g>
</svg>
