<svg width="16px" height="16px" viewBox="0 0 16 16" version="1.1" xmlns="http://www.w3.org/2000/svg" xmlns:xlink="http://www.w3.org/1999/xlink">
    <!-- Generator: Sketch 55.2 (78181) - https://sketchapp.com -->
    <title>grouping</title>
    <desc>Created with Sketch.</desc>
    <g id="grouping" stroke="none" stroke-width="1" fill="none" fill-rule="evenodd">
        <g id="数据盘">
            <rect id="矩形" fill="#FFFFFF" opacity="0" x="0" y="0" width="16" height="16"></rect>
            <path d="M9,11 L3,11 L3,13 L9,13 L9,11 Z M11,11 L11,13 L13,13 L13,11 L11,11 Z M11,5 L13,5 L13,3 L11,3 L11,5 Z M9,5 L9,3 L3,3 L3,5 L9,5 Z M1,9 L15,9 L15,15 L1,15 L1,9 Z M1,1 L15,1 L15,7 L1,7 L1,1 Z" id="形状结合" fill="#888888"></path>
        </g>
    </g>
</svg>
