<?xml version="1.0" encoding="UTF-8"?>
<svg width="14px" height="14px" viewBox="0 0 14 14" version="1.1" xmlns="http://www.w3.org/2000/svg" xmlns:xlink="http://www.w3.org/1999/xlink">
    <!-- Generator: Sketch 52.2 (67145) - http://www.bohemiancoding.com/sketch -->
    <title>账户管理-灰</title>
    <desc>Created with Sketch.</desc>
    <g id="ICON-基础库(绘制参考)" stroke="none" stroke-width="1" fill="none" fill-rule="evenodd">
        <g id="账户管理-灰" transform="translate(-1.000000, -1.000000)">
            <rect id="矩形备份-6-copy-8" opacity="0.219122024" x="0" y="0" width="16" height="16"></rect>
            <g id="account" transform="translate(1.000000, 1.000000)" fill="#888888" fill-rule="nonzero">
                <path d="M7,10.1 C9.1,10.1 11.5,11.1 11.7,11.7 L11.7,12.2 L2.2,12.2 L2.2,11.7 C2.5,11.1 4.9,10.1 7,10.1 Z M7,8.4 C4.8,8.4 0.5,9.5 0.5,11.6 L0.5,14 L13.6,14 L13.6,11.6 C13.4,9.5 9.2,8.4 7,8.4 Z" id="形状"></path>
                <path d="M7,1.7 C8.1,1.7 8.9,2.6 8.9,3.6 C8.9,4.6 8,5.7 7,5.7 C6,5.7 5,4.8 5,3.7 C5,2.6 5.9,1.7 7,1.7 Z M7,0 C5,0 3.3,1.7 3.3,3.8 C3.3,5.8 5,7.5 7,7.5 C9,7.5 10.7,5.8 10.7,3.8 C10.7,1.6 9.1,0 7,0 Z" id="形状"></path>
            </g>
        </g>
    </g>
</svg>