<svg width="13" height="13" viewBox="0 0 13 13" fill="none" xmlns="http://www.w3.org/2000/svg">
<path fill-rule="evenodd" clip-rule="evenodd" d="M12.8994 7.3125C12.4995 10.5187 9.76417 13 6.4497 13C3.13524 13 0.399878 10.5187 0 7.3125H1.64237C2.03018 9.61555 4.03791 11.375 6.4497 11.375C8.8615 11.375 10.8692 9.61555 11.257 7.3125H12.8994ZM9.55587 2.74508L7.85716 5.68725C7.99551 5.92632 8.0747 6.20391 8.0747 6.5C8.0747 7.39746 7.34717 8.125 6.4497 8.125C5.55224 8.125 4.8247 7.39746 4.8247 6.5C4.8247 5.60254 5.55224 4.875 6.4497 4.875L6.44972 4.875L8.14971 1.93062C7.62019 1.73304 7.04735 1.625 6.4497 1.625C4.03791 1.625 2.03018 3.38445 1.64237 5.6875H0C0.399878 2.48129 3.13524 0 6.4497 0C9.76417 0 12.4995 2.48129 12.8994 5.6875H11.257C11.0589 4.51069 10.4377 3.47581 9.55587 2.74508Z" fill="#E54545"/>
</svg>
